<svg width="363" height="116" viewBox="0 0 363 116" fill="none" xmlns="http://www.w3.org/2000/svg">
<g clip-path="url(#clip0_301_2)">
<path d="M412.622 3.34497H416.477V109.06H412.622V3.34497ZM54.8991 3.26764C40.9778 3.26764 28.329 9.02897 19.123 18.3476C18.2623 13.5916 17.8132 8.64231 17.8132 3.61564L18.7862 3.34497H3.74226C3.74226 13.5143 5.76309 23.2196 9.35567 31.997C5.76309 39.2276 3.74226 47.425 3.74226 56.125C3.74226 85.2796 26.6075 108.944 54.8242 108.982L54.8616 109.06H106.093V56.125C106.056 26.9316 83.1532 3.26764 54.8991 3.26764ZM54.9365 94.521V94.4436H54.8991C34.4289 94.4436 17.8132 77.2756 17.8132 56.125C17.8132 53.4183 18.0751 50.8276 18.5991 48.2756C29.3768 62.6983 45.244 72.9063 63.4314 75.9996C45.8054 68.5756 31.5847 53.7663 23.9505 35.0516C30.5743 24.6503 41.9882 17.8063 54.9365 17.8063C75.4067 17.8063 92.0224 34.9743 92.0224 56.125V94.521H54.9365Z" fill="#FFF1CE"/>
<path d="M454.56 46.3357V29.7863H452.239L445.653 38.873V29.7863H441.798V46.3357H444.119L450.705 37.249V46.3357H454.56ZM332.936 29.0903C319.164 29.0903 308.05 40.613 308.05 54.8037C308.05 69.033 319.202 80.517 332.936 80.517V80.5557H357.822V54.8037C357.822 40.613 346.707 29.0903 332.936 29.0903ZM219.545 59.1343H216.289V80.4397H206.372V29.825H216.289V49.777H219.545C223.475 49.777 226.506 49.081 228.639 47.689C230.772 46.297 232.643 43.861 234.252 40.4197L239.042 29.825H249.408L244.618 40.3037C243.159 43.5517 241.737 46.2583 240.315 48.4237C238.893 50.589 237.433 52.4063 235.899 53.837L252.589 80.4397H241.026L227.479 58.361C226.394 58.6703 225.196 58.8637 223.886 58.9797C222.576 59.057 221.117 59.1343 219.545 59.1343ZM272.386 59.1343H269.13V80.4397H259.176V29.825H269.093V49.777H272.349C276.278 49.777 279.309 49.081 281.442 47.689C283.575 46.297 285.446 43.861 287.056 40.4197L291.846 29.825H302.212L297.422 40.3037C295.962 43.5517 294.54 46.2583 293.118 48.4237C291.696 50.589 290.237 52.4063 288.702 53.837L305.393 80.4397H293.829L280.282 58.361C279.197 58.6703 277.999 58.8637 276.69 58.9797C275.417 59.057 273.958 59.1343 272.386 59.1343ZM173.815 29.0903C161.802 29.0903 151.81 37.7903 149.34 49.429H144.026V29.825H134.221V80.4397H144.026V59.289H149.041C150.949 71.6623 161.278 81.0583 173.815 81.0583C187.736 81.0583 199 69.5357 199 55.1517C199 40.729 187.736 29.0903 173.815 29.0903ZM173.815 38.8343C181.935 38.8343 189.195 45.5237 189.195 55.1517C189.195 64.7797 181.935 71.353 173.815 71.353C165.694 71.353 158.546 64.7797 158.546 55.1517C158.546 45.485 165.694 38.8343 173.815 38.8343ZM332.936 38.7183C341.543 38.7183 348.504 45.9103 348.504 54.8037V70.889H332.936C324.329 70.889 317.368 63.697 317.368 54.8037C317.368 45.949 324.329 38.7183 332.936 38.7183ZM471.362 46.3357V29.7863H467.508V36.1277H462.568V29.7863H458.714V46.3357H462.568V39.9557H467.508V46.3357H471.362ZM482.327 33.5757H486.406V29.7863H474.394V33.5757H478.473V46.3357H482.327V33.5757ZM493.479 36.1663V33.5757H500.515V29.7863H489.625V46.3357H500.515V42.5463H493.479V39.9557H499.878V36.1663H493.479ZM504.294 29.7863V46.3357H508.149V42.8557H509.646C514.324 42.8557 516.793 39.8783 516.793 36.321C516.793 32.8023 514.324 29.7863 509.646 29.7863H504.294ZM508.149 39.0277V33.5757H509.945C511.592 33.5757 513.126 34.5037 513.126 36.321C513.126 38.2157 511.592 39.0277 509.945 39.0277H508.149ZM523.941 35.625V29.7863H520.087V46.3357H526.86C530.602 46.3357 532.361 44.1317 532.361 40.9997C532.361 37.8677 530.602 35.625 526.86 35.625H523.941ZM523.941 42.5463V39.453H526.935C528.207 39.453 528.731 40.0717 528.731 40.9997C528.731 41.9277 528.245 42.5463 526.935 42.5463H523.941ZM539.659 37.2555V33.5757H546.694V29.7863H535.804V46.3357H546.694V42.5463H539.659V39.9557H546.058V36.1663L539.659 37.2555ZM550.474 29.7863V46.3357H554.328V42.8557H555.825C560.503 42.8557 562.973 39.8783 562.973 36.321C562.973 32.8023 560.503 29.7863 555.825 29.7863H550.474ZM554.328 39.0277V33.5757H556.125C557.771 33.5757 559.306 34.5037 559.306 36.321C559.306 38.2157 557.771 39.0277 556.125 39.0277H554.328ZM578.466 46.3357V29.7863H574.611V36.1277H569.672V29.7863H565.817V46.3357H569.672V39.9557H574.611V46.3357H578.466ZM586.475 35.625V29.7863H582.62V46.3357H589.393C593.136 46.3357 594.895 44.1317 594.895 40.9997C594.895 37.8677 593.136 35.625 589.393 35.625H586.475ZM600.134 46.3357V29.7863H596.279V46.3357H600.134ZM586.475 42.5463V39.453H589.468C590.741 39.453 591.265 40.0717 591.265 40.9997C591.265 41.9277 590.778 42.5463 589.468 42.5463H586.475ZM608.591 36.1663V33.5757H615.627V29.7863H604.737V46.3357H615.627V42.5463H608.591V39.9557H614.991V36.1663H608.591ZM458.302 83.069V76.225H456.169L451.229 63.5037H448.909L443.894 76.225H441.761V83.069H445.616V80.0143H454.41V83.069H458.302ZM450.069 70.8503L452.015 76.225H448.085L450.069 70.8503ZM461.483 63.5037V80.053H467.695C472.373 80.053 473.757 77.8103 473.757 75.2197C473.757 73.3637 472.747 71.8557 471.325 71.5077C472.335 71.005 473.271 69.9223 473.271 68.0277C473.271 66.5197 472.485 63.5423 467.77 63.5423H461.483V63.5037ZM465.337 67.293H468.219C469.379 67.293 469.603 68.105 469.603 68.569C469.603 69.033 469.342 69.845 468.219 69.845H465.337V67.293ZM465.337 73.2863H468.481C469.678 73.2863 470.09 74.0983 470.09 74.7557C470.09 75.4517 469.716 76.225 468.481 76.225H465.337V73.2863ZM481.092 69.845V67.2543H488.128V63.465H477.238V80.0143H488.128V76.225H481.092V73.6343H487.492V69.845H481.092ZM491.907 63.5037V80.053H495.762V76.573H497.259C501.937 76.573 504.407 73.5957 504.407 70.0383C504.407 66.5197 501.937 63.5037 497.259 63.5037H491.907ZM495.762 72.745V67.293H497.558C499.205 67.293 500.739 68.221 500.739 70.0383C500.739 71.933 499.205 72.745 497.558 72.745H495.762ZM520.461 80.0143V63.465H518.141L511.554 72.5517V63.465H507.7V80.0143H510.02L516.606 70.9277V80.0143H520.461Z" fill="#FFF1CE"/>
</g>
<defs>
<clipPath id="clip0_301_2">
<rect width="363" height="116" fill="white"/>
</clipPath>
</defs>
</svg>
