<svg width="218" height="87" viewBox="0 0 218 87" fill="none" xmlns="http://www.w3.org/2000/svg">
<g clip-path="url(#clip0_14_171)">
<path d="M19.0027 23.6584V5.04035H16.213L8.29388 15.2629V5.04035H3.65942V23.6584H6.4491L14.3682 13.4359V23.6584H19.0027ZM-127.231 4.25735C-143.789 4.25735 -157.152 17.2204 -157.152 33.1849C-157.152 49.1929 -143.744 62.1124 -127.231 62.1124V62.1559H-97.309V33.1849C-97.309 17.2204 -110.672 4.25735 -127.231 4.25735ZM-263.565 38.0569H-267.48V62.0254H-279.403V5.08385H-267.48V27.5299H-263.565C-258.841 27.5299 -255.196 26.7469 -252.631 25.1809C-250.067 23.6149 -247.817 20.8744 -245.882 17.0029L-240.123 5.08385H-227.659L-233.418 16.8724C-235.173 20.5264 -236.883 23.5714 -238.593 26.0074C-240.303 28.4434 -242.057 30.4879 -243.902 32.0974L-223.835 62.0254H-237.738L-254.026 37.1869C-255.331 37.5349 -256.771 37.7524 -258.346 37.8829C-259.92 37.9699 -261.675 38.0569 -263.565 38.0569ZM-200.032 38.0569H-203.947V62.0254H-215.915V5.08385H-203.992V27.5299H-200.077C-195.353 27.5299 -191.708 26.7469 -189.143 25.1809C-186.579 23.6149 -184.329 20.8744 -182.394 17.0029L-176.635 5.08385H-164.171L-169.931 16.8724C-171.685 20.5264 -173.395 23.5714 -175.105 26.0074C-176.815 28.4434 -178.57 30.4879 -180.415 32.0974L-160.347 62.0254H-174.25L-190.538 37.1869C-191.843 37.5349 -193.283 37.7524 -194.858 37.8829C-196.388 37.9699 -198.142 38.0569 -200.032 38.0569ZM-318.549 4.25735C-332.992 4.25735 -345.006 14.0449 -347.975 27.1384H-354.365V5.08385H-366.153V62.0254H-354.365V38.2309H-348.335C-346.041 52.1509 -333.622 62.7214 -318.549 62.7214C-301.811 62.7214 -288.267 49.7584 -288.267 33.5764C-288.267 17.3509 -301.811 4.25735 -318.549 4.25735ZM-318.549 15.2194C-308.785 15.2194 -300.056 22.7449 -300.056 33.5764C-300.056 44.4079 -308.785 51.8029 -318.549 51.8029C-328.313 51.8029 -336.907 44.4079 -336.907 33.5764C-336.907 22.7014 -328.313 15.2194 -318.549 15.2194ZM-127.231 15.0889C-116.882 15.0889 -108.513 23.1799 -108.513 33.1849V51.2809H-127.231C-137.579 51.2809 -145.948 43.1899 -145.948 33.1849C-145.948 23.2234 -137.579 15.0889 -127.231 15.0889ZM39.2054 23.6584V5.04035H34.5709V12.1744H28.6316V5.04035H23.9971V23.6584H28.6316V16.4809H34.5709V23.6584H39.2054ZM52.3888 9.30335H57.2933V5.04035H42.8499V9.30335H47.7544V23.6584H52.3888V9.30335ZM65.7973 12.2179V9.30335H74.2563V5.04035H61.1628V23.6584H74.2563V19.3954H65.7973V16.4809H73.4914V12.2179H65.7973ZM78.8008 5.04035V23.6584H83.4353V19.7434H85.235C90.8594 19.7434 93.8291 16.3939 93.8291 12.3919C93.8291 8.43335 90.8594 5.04035 85.235 5.04035H78.8008ZM83.4353 15.4369V9.30335H85.595C87.5748 9.30335 89.4196 10.3474 89.4196 12.3919C89.4196 14.5234 87.5748 15.4369 85.595 15.4369H83.4353ZM102.423 11.6089V5.04035H97.7887V23.6584H105.933C110.432 23.6584 112.547 21.1789 112.547 17.6554C112.547 14.1319 110.432 11.6089 105.933 11.6089H102.423ZM102.423 19.3954V15.9154H106.023C107.553 15.9154 108.182 16.6114 108.182 17.6554C108.182 18.6994 107.598 19.3954 106.023 19.3954H102.423ZM121.321 12.2179V9.30335H129.78V5.04035H116.686V23.6584H129.78V19.3954H121.321V16.4809H129.015V12.2179H121.321ZM134.324 5.04035V23.6584H138.959V19.7434H140.759C146.383 19.7434 149.353 16.3939 149.353 12.3919C149.353 8.43335 146.383 5.04035 140.759 5.04035H134.324ZM138.959 15.4369V9.30335H141.119C143.098 9.30335 144.943 10.3474 144.943 12.3919C144.943 14.5234 143.098 15.4369 141.119 15.4369H138.959ZM167.981 23.6584V5.04035H163.346V12.1744H157.407V5.04035H152.772V23.6584H157.407V16.4809H163.346V23.6584H167.981ZM177.609 11.6089V5.04035H172.975V23.6584H181.119C185.619 23.6584 187.733 21.1789 187.733 17.6554C187.733 14.1319 185.619 11.6089 181.119 11.6089H177.609ZM194.033 23.6584V5.04035H189.398V23.6584H194.033ZM177.609 19.3954V15.9154H181.209C182.739 15.9154 183.369 16.6114 183.369 17.6554C183.369 18.6994 182.784 19.3954 181.209 19.3954H177.609ZM204.201 12.2179V9.30335H212.66V5.04035H199.567V23.6584H212.66V19.3954H204.201V16.4809H211.896V12.2179H204.201ZM23.5022 64.9834V57.2839H20.9374L14.9981 42.9724H12.2084L6.17914 57.2839H3.61444V64.9834H8.2489V61.5469H18.8227V64.9834H23.5022ZM13.6033 51.2374L15.943 57.2839H11.2185L13.6033 51.2374ZM27.3267 42.9724V61.5904H34.7959C40.4202 61.5904 42.085 59.0674 42.085 56.1529C42.085 54.0649 40.8701 52.3684 39.1603 51.9769C40.3752 51.4114 41.5001 50.1934 41.5001 48.0619C41.5001 46.3654 40.5552 43.0159 34.8858 43.0159H27.3267V42.9724ZM31.9612 47.2354H35.4258C36.8206 47.2354 37.0906 48.1489 37.0906 48.6709C37.0906 49.1929 36.7756 50.1064 35.4258 50.1064H31.9612V47.2354ZM31.9612 53.9779H35.7408C37.1806 53.9779 37.6755 54.8914 37.6755 55.6309C37.6755 56.4139 37.2256 57.2839 35.7408 57.2839H31.9612V53.9779ZM50.904 50.1064V47.1919H59.3631V42.9289H46.2695V61.5469H59.3631V57.2839H50.904V54.3694H58.5981V50.1064H50.904ZM63.9075 42.9724V61.5904H68.542V57.6754H70.3418C75.9661 57.6754 78.9358 54.3259 78.9358 50.3239C78.9358 46.3654 75.9661 42.9724 70.3418 42.9724H63.9075ZM68.542 53.3689V47.2354H70.7018C72.6815 47.2354 74.5263 48.2794 74.5263 50.3239C74.5263 52.4554 72.6815 53.3689 70.7018 53.3689H68.542ZM98.2386 61.5469V42.9289H95.4489L87.5298 53.1514V42.9289H82.8953V61.5469H85.685L93.6041 51.3244V61.5469H98.2386Z" fill="#FFF1CE"/>
</g>
<defs>
<clipPath id="clip0_14_171">
<rect width="218" height="87" fill="white"/>
</clipPath>
</defs>
</svg>
