<svg width="11" height="14" viewBox="0 0 11 14" fill="none" xmlns="http://www.w3.org/2000/svg">
<path fill-rule="evenodd" clip-rule="evenodd" d="M5.39281 0.2948C6.61806 0.2948 7.80766 0.708526 8.74561 1.45986V1.45983C9.97086 2.44068 10.6915 3.83532 10.7787 5.38588C10.8621 6.91674 10.29 8.4145 9.20969 9.49486L5.6284 13.0293C5.48968 13.1668 5.24906 13.1656 5.11033 13.0281L1.57965 9.4974C0.496838 8.41459 -0.0764909 6.91561 0.00821855 5.38591C0.0941443 3.83542 0.816027 2.44077 2.04001 1.45986C2.97674 0.708526 4.1676 0.2948 5.39281 0.2948ZM2.98658 5.68442C2.98658 7.01153 4.06568 8.09066 5.39281 8.09066C6.71992 8.09066 7.80027 7.01156 7.79905 5.68442C7.79905 4.35732 6.71995 3.27819 5.39281 3.27819C4.06571 3.27819 2.98658 4.35729 2.98658 5.68442Z" fill="#FFF1CE"/>
<path d="M5.39281 4.51157C4.74582 4.51157 4.22037 5.03702 4.22037 5.68401C4.22037 6.331 4.74582 6.85645 5.39281 6.85645C6.0398 6.85645 6.56525 6.331 6.56525 5.68401C6.56525 5.03702 6.0398 4.51157 5.39281 4.51157Z" fill="#FFF1CE"/>
</svg>
