<svg width="25" height="25" viewBox="0 0 26 30" fill="none" xmlns="http://www.w3.org/2000/svg">
<path d="M12.5125 0C5.61185 0 0.0124512 5.625 0.0124512 12.5571C0.0124512 25.6179 12.0112 29.8821 12.1285 29.9357C12.2565 29.9786 12.3738 30 12.5125 30C12.6404 30 12.7684 29.9786 12.8857 29.9357C13.0137 29.8929 25.0125 25.6286 25.0125 12.5571C25.0125 5.625 19.4024 0 12.5125 0ZM12.5125 19.1464C8.85417 19.1464 5.88916 16.1571 5.88916 12.5036C5.88916 8.82857 8.86484 5.85 12.5125 5.85C16.1601 5.85 19.1251 8.83928 19.1251 12.5036C19.1251 16.1571 16.1601 19.1464 12.5125 19.1464Z" fill="#5E5E18"/>
</svg>
