<svg width="120" height="84" viewBox="0 0 120 84" fill="none" xmlns="http://www.w3.org/2000/svg">
<path d="M62.0001 15C61.8483 15.0001 61.6986 14.9658 61.5621 14.8994C61.4256 14.8331 61.306 14.7366 61.2123 14.6172C61.1187 14.4978 61.0534 14.3587 61.0215 14.2104C60.9896 14.062 60.9918 13.9083 61.0281 13.761C61.5438 11.6042 61.8542 9.40334 61.9551 7.188L58.2651 7.803C58.7644 9.83051 59.0113 11.9119 59.0001 14C59.0001 14.2652 58.8947 14.5196 58.7072 14.7071C58.5197 14.8946 58.2653 15 58.0001 15C57.7349 15 57.4805 14.8946 57.293 14.7071C57.1054 14.5196 57.0001 14.2652 57.0001 14C57.0209 11.7313 56.6989 9.47252 56.0451 7.3C56.0026 7.16363 55.9898 7.01974 56.0075 6.878C56.0253 6.73627 56.0732 6.59999 56.1481 6.47833C56.2229 6.35667 56.323 6.25245 56.4415 6.17271C56.56 6.09296 56.6942 6.03952 56.8351 6.016L62.8351 5.016C62.9801 4.99171 63.1287 4.9997 63.2703 5.0394C63.4119 5.07911 63.543 5.14955 63.6542 5.24571C63.7655 5.34188 63.8542 5.46139 63.9139 5.59574C63.9737 5.7301 64.0031 5.87598 64.0001 6.023C63.9557 8.79086 63.6107 11.5457 62.9711 14.239C62.9176 14.4562 62.7929 14.6491 62.6169 14.7871C62.4409 14.925 62.2237 15 62.0001 15Z" fill="#5E5E18"/>
<path d="M60 65C59.8246 65.0003 59.6522 64.9544 59.5 64.867C56.0862 62.9167 53.5637 59.7161 52.465 55.941C52.4283 55.8149 52.4167 55.6829 52.431 55.5523C52.4452 55.4218 52.4851 55.2953 52.5482 55.1802C52.6114 55.065 52.6966 54.9635 52.799 54.8812C52.9014 54.799 53.019 54.7378 53.145 54.701C53.2711 54.6642 53.4032 54.6527 53.5337 54.6669C53.6643 54.6812 53.7907 54.7211 53.9059 54.7842C54.021 54.8473 54.1226 54.9325 54.2048 55.035C54.287 55.1374 54.3483 55.2549 54.385 55.381C55.2836 58.4672 57.281 61.1177 60 62.832C61.678 61.7635 63.0965 60.3341 64.1521 58.648C64.2925 58.4226 64.5167 58.2622 64.7754 58.2021C65.0341 58.142 65.3061 58.1871 65.5316 58.3275C65.757 58.4679 65.9174 58.6922 65.9775 58.9509C66.0376 59.2096 65.9925 59.4816 65.8521 59.707C64.5184 61.839 62.6816 63.6109 60.503 64.867C60.3501 64.955 60.1765 65.0008 60 65Z" fill="#B7B75B"/>
<path d="M51.6911 57.87C51.4635 57.8701 51.2426 57.7925 51.0651 57.65C48.0356 55.1179 45.9555 51.6324 45.1651 47.764C45.1364 47.6356 45.1333 47.5028 45.156 47.3733C45.1787 47.2437 45.2267 47.1199 45.2974 47.0089C45.368 46.8979 45.4599 46.802 45.5676 46.7265C45.6754 46.6511 45.797 46.5977 45.9255 46.5693C46.054 46.541 46.1867 46.5383 46.3163 46.5613C46.4458 46.5844 46.5695 46.6328 46.6803 46.7037C46.791 46.7746 46.8867 46.8667 46.9619 46.9747C47.037 47.0827 47.0901 47.2045 47.1181 47.333C47.772 50.5171 49.4019 53.4182 51.7811 55.633C52.1237 55.4043 52.4641 55.154 52.8021 54.882C54.515 53.4787 55.9216 51.7388 56.9351 49.77C57.06 49.5389 57.2708 49.3662 57.522 49.2893C57.7731 49.2123 58.0445 49.2373 58.2774 49.3588C58.5103 49.4803 58.686 49.6886 58.7666 49.9386C58.8472 50.1887 58.8262 50.4604 58.7081 50.695C57.5665 52.9082 55.9828 54.8635 54.0551 56.44C53.4681 56.9138 52.8482 57.3452 52.2001 57.731C52.0459 57.8221 51.8701 57.8701 51.6911 57.87Z" fill="#A8A84A"/>
<path d="M43.413 49.139C43.2544 49.1391 43.098 49.1014 42.9568 49.029C42.8156 48.9567 42.6937 48.8518 42.601 48.723C41.3414 46.9573 40.5027 44.9266 40.1491 42.7866C39.7955 40.6467 39.9364 38.4541 40.561 36.377C40.635 36.1223 40.8072 35.9074 41.0396 35.7796C41.2721 35.6518 41.5458 35.6215 41.8005 35.6955C42.0553 35.7695 42.2702 35.9417 42.398 36.1741C42.5258 36.4066 42.556 36.6803 42.482 36.935C41.9731 38.6243 41.8352 40.4036 42.0777 42.1511C42.3202 43.8986 42.9374 45.5732 43.887 47.06C44.5482 46.9491 45.201 46.7935 45.841 46.594C49.0242 45.609 51.7759 43.5672 53.641 40.806C53.7106 40.6894 53.8031 40.5882 53.913 40.5085C54.023 40.4288 54.148 40.3723 54.2804 40.3425C54.4129 40.3127 54.55 40.3102 54.6835 40.3351C54.817 40.36 54.944 40.4119 55.0567 40.4875C55.1695 40.5631 55.2657 40.6608 55.3395 40.7748C55.4133 40.8888 55.463 41.0166 55.4858 41.1505C55.5086 41.2843 55.5038 41.4214 55.4719 41.5534C55.44 41.6853 55.3815 41.8094 55.3 41.918C53.9656 43.8891 52.2255 45.5524 50.1961 46.7963C48.1668 48.0403 45.895 48.8363 43.533 49.131C43.4932 49.1361 43.4532 49.1387 43.413 49.139Z" fill="#8E8E39"/>
<path d="M68.4627 58.4362C68.284 58.4361 68.1086 58.3881 67.9547 58.2972C67.2951 57.9061 66.6648 57.4676 66.0687 56.9852C63.098 54.518 60.9496 51.2042 59.9097 47.4852C59.8397 47.2316 59.8725 46.9607 60.0009 46.7311C60.1293 46.5015 60.343 46.3317 60.5956 46.2586C60.8483 46.1855 61.1196 46.2148 61.3508 46.3404C61.582 46.4659 61.7544 46.6774 61.8307 46.9292C62.7549 50.2546 64.6702 53.2196 67.3217 55.4292C67.6697 55.7092 68.0197 55.9665 68.3717 56.2012C70.7427 53.9848 72.3651 51.0854 73.0137 47.9052C73.0395 47.7746 73.0911 47.6506 73.1655 47.5402C73.2399 47.4299 73.3356 47.3355 73.447 47.2626C73.5583 47.1897 73.6831 47.1398 73.814 47.1157C73.9449 47.0917 74.0792 47.094 74.2092 47.1225C74.3392 47.1511 74.4622 47.2053 74.5709 47.282C74.6797 47.3587 74.7721 47.4563 74.8426 47.5692C74.9132 47.682 74.9605 47.8078 74.9818 47.9392C75.0031 48.0705 74.998 48.2048 74.9667 48.3342C74.1832 52.1967 72.1136 55.6795 69.0957 58.2142C68.9165 58.3589 68.693 58.4373 68.4627 58.4362Z" fill="#A8A84A"/>
<path d="M76.5871 49.3663C76.5463 49.3661 76.5056 49.3634 76.4651 49.3583C74.1037 49.0626 71.8326 48.2662 69.8037 47.0223C67.7748 45.7784 66.0348 44.1156 64.7001 42.1453C64.5581 41.9248 64.5084 41.6575 64.5616 41.4007C64.6148 41.144 64.7668 40.9184 64.9847 40.7726C65.2026 40.6268 65.4691 40.5724 65.7267 40.6212C65.9843 40.6699 66.2125 40.8179 66.3621 41.0333C67.4811 42.6804 68.9222 44.0837 70.5984 45.1586C72.2747 46.2335 74.1513 46.9576 76.1151 47.2873C77.0648 45.8004 77.682 44.1259 77.9245 42.3784C78.1669 40.6308 78.029 38.8515 77.5201 37.1623C77.4461 36.9075 77.4763 36.6338 77.6041 36.4014C77.7319 36.1689 77.9469 35.9968 78.2016 35.9228C78.4563 35.8488 78.73 35.879 78.9625 36.0068C79.1949 36.1346 79.3671 36.3495 79.4411 36.6043C80.0656 38.6814 80.2063 40.874 79.8525 43.014C79.4988 45.154 78.6599 47.1846 77.4001 48.9503C77.3074 49.0792 77.1852 49.1841 77.0439 49.2565C76.9025 49.3288 76.7459 49.3665 76.5871 49.3663Z" fill="#8E8E39"/>
<path d="M60 48.109C59.8246 48.1093 59.6521 48.0634 59.5 47.976C59.228 47.818 58.9613 47.6513 58.7 47.476C56.5459 46.0528 54.7864 44.1082 53.585 41.823C52.4467 39.6657 51.8548 37.2622 51.861 34.823C51.861 34.423 51.88 34.034 51.911 33.644C51.9316 33.3796 52.0563 33.1342 52.2578 32.9617C52.4593 32.7893 52.7211 32.704 52.9855 32.7245C53.2499 32.7451 53.4954 32.8698 53.6678 33.0713C53.8402 33.2728 53.9256 33.5346 53.905 33.799C53.878 34.137 53.861 34.478 53.861 34.823C53.8571 36.9382 54.3722 39.0221 55.361 40.892C56.403 42.8789 57.9299 44.5706 59.8 45.81C59.866 45.854 59.933 45.897 60 45.939C60.069 45.896 60.137 45.851 60.2 45.806C62.0702 44.5705 63.5983 42.8831 64.643 40.9C65.2535 39.7382 65.6847 38.4908 65.922 37.2C65.9458 37.0709 65.9948 36.9476 66.0661 36.8374C66.1375 36.7272 66.2299 36.6321 66.3381 36.5576C66.4462 36.4831 66.5679 36.4306 66.6964 36.4031C66.8248 36.3756 66.9574 36.3737 67.0865 36.3975C67.2157 36.4213 67.3389 36.4703 67.4491 36.5416C67.5593 36.613 67.6544 36.7054 67.7289 36.8136C67.8035 36.9217 67.8559 37.0434 67.8834 37.1719C67.9109 37.3003 67.9128 37.4329 67.889 37.562C67.6147 39.0487 67.1178 40.4855 66.415 41.824C65.2147 44.1058 63.4586 46.0483 61.309 47.472C61.044 47.647 60.775 47.815 60.499 47.972C60.3476 48.0607 60.1755 48.1079 60 48.109Z" fill="#8E8E39"/>
<path d="M42.544 37.692C42.1734 37.692 41.809 37.6793 41.451 37.654C40.6219 37.6011 39.8 37.4671 38.997 37.254C38.8277 37.2067 38.6739 37.1156 38.551 36.9899C38.4281 36.8642 38.3405 36.7083 38.297 36.538C36.958 31.338 40.425 24.9 44.367 21.482C47.0857 19.2845 50.3431 17.855 53.801 17.342C54.5629 17.2197 55.3306 17.1376 56.101 17.096C58.6994 16.9649 61.3027 16.9649 63.901 17.096C64.6535 17.1334 65.4033 17.2125 66.147 17.333C69.6284 17.8331 72.9092 19.2669 75.641 21.482C79.583 24.9 83.05 31.339 81.711 36.538C81.6676 36.7083 81.58 36.8642 81.4571 36.9899C81.3342 37.1156 81.1804 37.2067 81.011 37.254C80.2084 37.467 79.3868 37.601 78.558 37.654C74.3533 37.8176 70.1922 36.7507 66.585 34.584C65.7351 34.0797 64.9302 33.5033 64.179 32.861C62.0111 30.9807 60.2763 28.6529 59.094 26.038C58.4988 24.7219 58.1089 23.3223 57.938 21.888C57.9131 21.6264 57.9922 21.3655 58.1582 21.1617C58.3242 20.9579 58.5638 20.8277 58.825 20.7992C59.0863 20.7707 59.3483 20.8461 59.5543 21.0093C59.7604 21.1725 59.8939 21.4102 59.926 21.671C60.0758 22.9017 60.413 24.1023 60.926 25.231C61.9877 27.5766 63.5451 29.6642 65.491 31.35C66.1547 31.9168 66.866 32.4254 67.617 32.87C70.869 34.8306 74.6224 35.7998 78.417 35.659C78.9164 35.6237 79.4131 35.5569 79.904 35.459C80.604 31.272 77.716 25.921 74.337 22.991C71.8877 21.0189 68.9508 19.7456 65.837 19.306C65.1624 19.1998 64.4823 19.131 63.8 19.1C61.27 18.973 58.7351 18.973 56.205 19.1C55.5066 19.1375 54.8106 19.2119 54.12 19.323C51.0266 19.7737 48.1099 21.0432 45.672 23C42.293 25.93 39.401 31.281 40.105 35.468C40.5963 35.566 41.0933 35.6328 41.593 35.668C45.3874 35.8045 49.1396 34.8351 52.393 32.878C53.1447 32.4309 53.8564 31.9197 54.52 31.35C55.3051 30.6666 56.0298 29.9169 56.686 29.109C56.769 29.0072 56.8713 28.9227 56.9869 28.8603C57.1026 28.798 57.2294 28.7591 57.3601 28.7458C57.4908 28.7324 57.6228 28.745 57.7487 28.7827C57.8745 28.8204 57.9917 28.8825 58.0935 28.9655C58.1954 29.0485 58.2799 29.1507 58.3422 29.2664C58.4045 29.382 58.4435 29.5088 58.4568 29.6395C58.4701 29.7702 58.4576 29.9023 58.4199 30.0281C58.3822 30.154 58.32 30.2712 58.237 30.373C57.5072 31.2695 56.7019 32.1019 55.83 32.861C55.0786 33.503 54.2733 34.0791 53.423 34.583C50.1277 36.5452 46.3786 37.6166 42.544 37.692Z" fill="#757522"/>
<path d="M17.27 76.782V80.142H15.968V78H7.722L7.708 80.142H6.42L6.434 76.782H7.638V72.386C7.638 71.0047 8.016 69.9453 8.772 69.208C9.528 68.4613 10.55 68.088 11.838 68.088C13.1353 68.088 14.162 68.4613 14.918 69.208C15.6833 69.9453 16.066 71.0047 16.066 72.386V76.782H17.27ZM14.652 76.782V72.246C14.652 71.294 14.4047 70.5753 13.91 70.09C13.4247 69.5953 12.734 69.348 11.838 69.348C10.9513 69.348 10.2607 69.5953 9.766 70.09C9.27133 70.5753 9.024 71.294 9.024 72.246V76.782H14.652ZM24.0591 74.15C25.0205 74.3927 25.5011 74.9947 25.5011 75.956C25.5011 76.6093 25.2538 77.1133 24.7591 77.468C24.2738 77.8227 23.5458 78 22.5751 78H19.0051V70.58H22.4491C23.3265 70.58 24.0125 70.748 24.5071 71.084C25.0018 71.4107 25.2491 71.8773 25.2491 72.484C25.2491 72.876 25.1418 73.2167 24.9271 73.506C24.7218 73.786 24.4325 74.0007 24.0591 74.15ZM20.3211 73.772H22.3371C22.8505 73.772 23.2378 73.6787 23.4991 73.492C23.7698 73.3053 23.9051 73.0347 23.9051 72.68C23.9051 71.9707 23.3825 71.616 22.3371 71.616H20.3211V73.772ZM22.4771 76.964C23.0371 76.964 23.4571 76.8753 23.7371 76.698C24.0171 76.5207 24.1571 76.2453 24.1571 75.872C24.1571 75.4893 24.0265 75.2047 23.7651 75.018C23.5131 74.8313 23.1118 74.738 22.5611 74.738H20.3211V76.964H22.4771ZM30.9227 76.908C31.8094 76.908 32.5234 76.6093 33.0647 76.012L33.7927 76.88C33.4661 77.272 33.0507 77.5707 32.5467 77.776C32.0521 77.9813 31.4967 78.084 30.8807 78.084C30.0967 78.084 29.4014 77.9253 28.7947 77.608C28.1881 77.2813 27.7167 76.8287 27.3807 76.25C27.0541 75.6713 26.8907 75.018 26.8907 74.29C26.8907 73.5713 27.0494 72.9227 27.3667 72.344C27.6934 71.7653 28.1367 71.3173 28.6967 71C29.2661 70.6733 29.9054 70.51 30.6147 70.51C31.2867 70.51 31.8981 70.664 32.4487 70.972C32.9994 71.2707 33.4381 71.6953 33.7647 72.246C34.0914 72.7967 34.2594 73.4313 34.2687 74.15L28.3747 75.298C28.5614 75.8113 28.8741 76.208 29.3127 76.488C29.7607 76.768 30.2974 76.908 30.9227 76.908ZM30.6147 71.644C30.1481 71.644 29.7281 71.7513 29.3547 71.966C28.9907 72.1807 28.7061 72.484 28.5007 72.876C28.2954 73.2587 28.1927 73.7067 28.1927 74.22V74.36L32.9387 73.464C32.8174 72.9227 32.5467 72.484 32.1267 72.148C31.7067 71.812 31.2027 71.644 30.6147 71.644ZM39.705 70.51C40.4517 70.51 41.1097 70.6687 41.679 70.986C42.2577 71.3033 42.701 71.7513 43.009 72.33C43.3263 72.8993 43.485 73.5573 43.485 74.304C43.485 75.0413 43.331 75.6993 43.023 76.278C42.715 76.8473 42.2857 77.2907 41.735 77.608C41.1843 77.9253 40.5543 78.084 39.845 78.084C39.285 78.084 38.781 77.986 38.333 77.79C37.885 77.5847 37.5117 77.2907 37.213 76.908V80.716H35.855V74.318C35.855 73.5713 36.0137 72.9087 36.331 72.33C36.6577 71.7513 37.1103 71.3033 37.689 70.986C38.277 70.6687 38.949 70.51 39.705 70.51ZM39.663 76.908C40.139 76.908 40.5683 76.8007 40.951 76.586C41.3337 76.362 41.6277 76.054 41.833 75.662C42.0477 75.2607 42.155 74.808 42.155 74.304C42.155 73.8 42.0477 73.352 41.833 72.96C41.6277 72.5587 41.3337 72.246 40.951 72.022C40.5777 71.798 40.1483 71.686 39.663 71.686C38.9257 71.686 38.3283 71.9287 37.871 72.414C37.4137 72.89 37.185 73.5153 37.185 74.29C37.185 74.8033 37.2877 75.2607 37.493 75.662C37.7077 76.054 38.0017 76.362 38.375 76.586C38.7483 76.8007 39.1777 76.908 39.663 76.908ZM52.2085 70.58V78H50.9205V76.908C50.6499 77.2813 50.2952 77.5707 49.8565 77.776C49.4179 77.9813 48.9372 78.084 48.4145 78.084C47.4252 78.084 46.6459 77.8133 46.0765 77.272C45.5072 76.7213 45.2225 75.914 45.2225 74.85V70.58H46.5665V74.696C46.5665 75.4147 46.7392 75.9607 47.0845 76.334C47.4299 76.698 47.9245 76.88 48.5685 76.88C49.2779 76.88 49.8379 76.6653 50.2485 76.236C50.6592 75.8067 50.8645 75.2 50.8645 74.416V70.58H52.2085ZM67.8952 78L67.8812 70.86L64.3392 76.81H63.6952L60.1532 70.902V78H58.8092V68.2H59.9572L64.0452 75.088L68.0772 68.2H69.2252L69.2392 78H67.8952ZM79.0377 70.58V78H77.7497V76.824C77.451 77.2347 77.073 77.5473 76.6157 77.762C76.1583 77.9767 75.6543 78.084 75.1037 78.084C74.385 78.084 73.741 77.9253 73.1717 77.608C72.6023 77.2907 72.1543 76.8473 71.8277 76.278C71.5103 75.6993 71.3517 75.0367 71.3517 74.29C71.3517 73.5433 71.5103 72.8853 71.8277 72.316C72.1543 71.7467 72.6023 71.3033 73.1717 70.986C73.741 70.6687 74.385 70.51 75.1037 70.51C75.6357 70.51 76.1257 70.6127 76.5737 70.818C77.0217 71.014 77.395 71.308 77.6937 71.7V70.58H79.0377ZM75.2157 76.908C75.6823 76.908 76.107 76.8007 76.4897 76.586C76.8723 76.362 77.171 76.054 77.3857 75.662C77.6003 75.2607 77.7077 74.8033 77.7077 74.29C77.7077 73.7767 77.6003 73.324 77.3857 72.932C77.171 72.5307 76.8723 72.2227 76.4897 72.008C76.107 71.7933 75.6823 71.686 75.2157 71.686C74.7397 71.686 74.3103 71.7933 73.9277 72.008C73.5543 72.2227 73.2557 72.5307 73.0317 72.932C72.817 73.324 72.7097 73.7767 72.7097 74.29C72.7097 74.8033 72.817 75.2607 73.0317 75.662C73.2557 76.054 73.5543 76.362 73.9277 76.586C74.3103 76.8007 74.7397 76.908 75.2157 76.908ZM85.1366 70.51C85.8833 70.51 86.5413 70.6687 87.1106 70.986C87.6893 71.3033 88.1326 71.7513 88.4406 72.33C88.758 72.8993 88.9166 73.5573 88.9166 74.304C88.9166 75.0413 88.7626 75.6993 88.4546 76.278C88.1466 76.8473 87.7173 77.2907 87.1666 77.608C86.616 77.9253 85.986 78.084 85.2766 78.084C84.7166 78.084 84.2126 77.986 83.7646 77.79C83.3166 77.5847 82.9433 77.2907 82.6446 76.908V80.716H81.2866V74.318C81.2866 73.5713 81.4453 72.9087 81.7626 72.33C82.0893 71.7513 82.542 71.3033 83.1206 70.986C83.7086 70.6687 84.3806 70.51 85.1366 70.51ZM85.0946 76.908C85.5706 76.908 86 76.8007 86.3826 76.586C86.7653 76.362 87.0593 76.054 87.2646 75.662C87.4793 75.2607 87.5866 74.808 87.5866 74.304C87.5866 73.8 87.4793 73.352 87.2646 72.96C87.0593 72.5587 86.7653 72.246 86.3826 72.022C86.0093 71.798 85.58 71.686 85.0946 71.686C84.3573 71.686 83.76 71.9287 83.3026 72.414C82.8453 72.89 82.6166 73.5153 82.6166 74.29C82.6166 74.8033 82.7193 75.2607 82.9246 75.662C83.1393 76.054 83.4333 76.362 83.8066 76.586C84.18 76.8007 84.6093 76.908 85.0946 76.908ZM100.16 70.51C101.094 70.51 101.831 70.7807 102.372 71.322C102.923 71.8633 103.198 72.666 103.198 73.73V78H101.854V73.884C101.854 73.1653 101.686 72.624 101.35 72.26C101.024 71.896 100.552 71.714 99.9362 71.714C99.2548 71.714 98.7135 71.9287 98.3122 72.358C97.9108 72.778 97.7102 73.3847 97.7102 74.178V78H96.3662V73.884C96.3662 73.1653 96.1982 72.624 95.8622 72.26C95.5355 71.896 95.0642 71.714 94.4482 71.714C93.7668 71.714 93.2255 71.9287 92.8242 72.358C92.4228 72.778 92.2222 73.3847 92.2222 74.178V78H90.8782V70.58H92.1662V71.686C92.4368 71.3033 92.7915 71.014 93.2302 70.818C93.6688 70.6127 94.1682 70.51 94.7282 70.51C95.3068 70.51 95.8202 70.6267 96.2682 70.86C96.7162 71.0933 97.0615 71.434 97.3042 71.882C97.5842 71.4527 97.9715 71.1167 98.4662 70.874C98.9702 70.6313 99.5348 70.51 100.16 70.51ZM112.561 70.58V78H111.273V76.824C110.974 77.2347 110.596 77.5473 110.139 77.762C109.682 77.9767 109.178 78.084 108.627 78.084C107.908 78.084 107.264 77.9253 106.695 77.608C106.126 77.2907 105.678 76.8473 105.351 76.278C105.034 75.6993 104.875 75.0367 104.875 74.29C104.875 73.5433 105.034 72.8853 105.351 72.316C105.678 71.7467 106.126 71.3033 106.695 70.986C107.264 70.6687 107.908 70.51 108.627 70.51C109.159 70.51 109.649 70.6127 110.097 70.818C110.545 71.014 110.918 71.308 111.217 71.7V70.58H112.561ZM108.739 76.908C109.206 76.908 109.63 76.8007 110.013 76.586C110.396 76.362 110.694 76.054 110.909 75.662C111.124 75.2607 111.231 74.8033 111.231 74.29C111.231 73.7767 111.124 73.324 110.909 72.932C110.694 72.5307 110.396 72.2227 110.013 72.008C109.63 71.7933 109.206 71.686 108.739 71.686C108.263 71.686 107.834 71.7933 107.451 72.008C107.078 72.2227 106.779 72.5307 106.555 72.932C106.34 73.324 106.233 73.7767 106.233 74.29C106.233 74.8033 106.34 75.2607 106.555 75.662C106.779 76.054 107.078 76.362 107.451 76.586C107.834 76.8007 108.263 76.908 108.739 76.908Z" fill="url(#paint0_linear_8_180)"/>
<path d="M0.6 0.6H119.4V83.4H0.6V0.6Z" stroke="#5E5E18" stroke-width="1.2"/>
<defs>
<linearGradient id="paint0_linear_8_180" x1="60" y1="64" x2="60" y2="81" gradientUnits="userSpaceOnUse">
<stop offset="0.34375" stop-color="#5E5E18"/>
<stop offset="1" stop-color="#A8A84A"/>
</linearGradient>
</defs>
</svg>
