<svg width="25" height="25" viewBox="0 0 25 24" fill="none" xmlns="http://www.w3.org/2000/svg">
<path d="M24.8875 18.8406L24.7631 18.4861C24.4684 17.6578 23.5024 16.7938 22.615 16.5662L19.3305 15.7178C18.4398 15.4886 17.1692 15.7967 16.5176 16.4129L15.3289 17.537C11.0088 16.4331 7.62127 13.2297 6.45551 9.14532L7.64427 8.02119C8.29594 7.40495 8.62173 6.20507 8.37941 5.36281L7.48379 2.25539C7.24147 1.41466 6.3262 0.501202 5.4519 0.225583L5.07697 0.106377C4.201 -0.169242 2.95173 0.109499 2.3001 0.72569L0.521965 2.40868C0.204302 2.70749 0.00127589 3.56214 0.00127589 3.56526C-0.0609155 8.90374 2.15272 14.0471 6.14607 17.8234C10.1296 21.5903 15.5483 23.6805 21.1774 23.6357C21.2068 23.6357 22.1368 23.4467 22.4545 23.1479L24.2326 21.4664C24.8842 20.8503 25.1789 19.669 24.8875 18.8406Z" fill="#5E5E18"/>
</svg>
