<?xml version="1.0" encoding="UTF-8"?>
<!DOCTYPE svg PUBLIC "-//W3C//DTD SVG 1.1//EN" "http://www.w3.org/Graphics/SVG/1.1/DTD/svg11.dtd">
<!-- Creator: CorelDRAW 2020 (64-Bit) -->
<svg xmlns="http://www.w3.org/2000/svg" xml:space="preserve" width="901px" height="203px" version="1.1" style="shape-rendering:geometricPrecision; text-rendering:geometricPrecision; image-rendering:optimizeQuality; fill-rule:evenodd; clip-rule:evenodd"
viewBox="0 0 29.98 6.76"
 xmlns:xlink="http://www.w3.org/1999/xlink"
 xmlns:xodm="http://www.corel.com/coreldraw/odm/2003">
 <defs>
  <style type="text/css">
   <![CDATA[
    .fil0 {fill:black;fill-rule:nonzero}
   ]]>
  </style>
 </defs>
 <g id="Слой_x0020_1">
  <metadata id="CorelCorpID_0Corel-Layer"/>
  <path class="fil0" d="M6.96 3.25c-0.04,-0.3 -0.21,-0.57 -0.51,-0.82 -0.29,-0.25 -0.67,-0.45 -1.13,-0.59 -0.47,-0.15 -0.97,-0.22 -1.52,-0.22l-0.5 0c-0.62,0 -1.2,0.1 -1.72,0.29 -0.52,0.19 -0.91,0.44 -1.15,0.75l-0.43 -0.08c0.12,-0.51 0.35,-0.97 0.68,-1.36 0.33,-0.38 0.73,-0.69 1.2,-0.9 0.47,-0.21 0.95,-0.32 1.46,-0.32l0.44 0c0.6,0 1.17,0.15 1.69,0.45 0.53,0.29 0.95,0.7 1.27,1.22 0.31,0.52 0.47,1.1 0.47,1.75 0,0.62 -0.15,1.19 -0.44,1.7 -0.29,0.51 -0.69,0.91 -1.22,1.2 -0.52,0.3 -1.11,0.44 -1.77,0.44l-0.45 0c-0.44,0 -0.89,-0.11 -1.36,-0.33 -0.47,-0.22 -0.89,-0.53 -1.25,-0.93 -0.36,-0.39 -0.6,-0.83 -0.72,-1.32l0.43 -0.08c0.24,0.31 0.63,0.56 1.15,0.75 0.52,0.19 1.1,0.29 1.72,0.29l0.5 0c0.55,0 1.05,-0.07 1.52,-0.21 0.46,-0.15 0.84,-0.34 1.13,-0.59 0.3,-0.25 0.47,-0.53 0.51,-0.82l-5.47 0 0 -0.27 5.47 0zm5.29 0.29l0 0 2.47 3.09 -0.35 0 -2.29 -2.87c-1.2,1.65 0.51,-0.7 -2.1,2.87l-1.62 0 0 -6.49 0.27 0 0 5.75 4.19 -5.75 1.9 0c-1.27,1.75 -2.03,2.78 -2.47,3.4zm9.18 -0.19c0.25,0.09 0.43,0.19 0.54,0.31 0.11,0.13 0.17,0.29 0.17,0.5 0,0.36 -0.11,0.74 -0.32,1.14 -0.22,0.41 -0.56,0.75 -1.04,1.04 -0.47,0.28 -1.08,0.42 -1.82,0.42l-0.25 0c-0.53,0 -1.03,-0.1 -1.52,-0.32 -0.48,-0.21 -0.89,-0.51 -1.24,-0.9 -0.34,-0.38 -0.57,-0.82 -0.7,-1.32l0.4 -0.1c0.37,0.28 0.81,0.53 1.33,0.72 0.52,0.2 1.07,0.3 1.65,0.3l0.46 0c0.35,0 0.74,-0.04 1.18,-0.12 0.43,-0.08 0.81,-0.2 1.12,-0.35 0.31,-0.16 0.47,-0.34 0.47,-0.56 0,-0.18 -0.11,-0.32 -0.32,-0.43 -0.22,-0.11 -0.5,-0.16 -0.83,-0.16l-3.96 0 0 -0.27 3.76 0c0.34,0 0.61,-0.06 0.83,-0.16 0.21,-0.11 0.32,-0.26 0.32,-0.45 0,-0.21 -0.15,-0.39 -0.43,-0.54 -0.28,-0.16 -0.62,-0.28 -1.02,-0.36 -0.4,-0.08 -0.77,-0.12 -1.12,-0.12l-0.43 0c-0.6,0 -1.13,0.07 -1.58,0.2 -0.46,0.14 -0.86,0.34 -1.21,0.62l-0.4 -0.09c0.25,-0.73 0.66,-1.31 1.23,-1.72 0.57,-0.42 1.25,-0.63 2.04,-0.63 0.65,0 1.21,0.13 1.69,0.39 0.48,0.27 0.85,0.6 1.11,0.99 0.26,0.4 0.38,0.78 0.38,1.16 0,0.21 -0.04,0.38 -0.12,0.5 -0.08,0.13 -0.21,0.23 -0.37,0.31zm3.8 -3.21l-3.14 6.49 1.71 0 1.11 -2.32 3.69 0 1.08 2.32 0.3 0 -3.04 -6.49 -1.71 0zm1.55 0.31l1.69 3.6 -3.43 0 1.74 -3.6z"/>
 </g>
</svg>
