<?xml version="1.0" encoding="UTF-8"?>
<!DOCTYPE svg PUBLIC "-//W3C//DTD SVG 1.1//EN" "http://www.w3.org/Graphics/SVG/1.1/DTD/svg11.dtd">
<!-- Creator: CorelDRAW 2020 (64-Bit) -->
<svg xmlns="http://www.w3.org/2000/svg" xml:space="preserve" width="1228px" height="118px" version="1.1" style="shape-rendering:geometricPrecision; text-rendering:geometricPrecision; image-rendering:optimizeQuality; fill-rule:evenodd; clip-rule:evenodd"
viewBox="0 0 34.13 3.28"
 xmlns:xlink="http://www.w3.org/1999/xlink"
 xmlns:xodm="http://www.corel.com/coreldraw/odm/2003">
 <defs>

 </defs>
 <g id="Слой_x0020_1">
  <metadata id="CorelCorpID_0Corel-Layer"/>
  <path class="fil0" d="M0.66 0.22l2.1 0 0 -0.13 -2.76 0 0 3.1 0.66 0 0 -2.97zm2.94 1.42l0 -1.42 1.25 0c0.76,0 0.76,1.42 0,1.42l-1.25 0zm0 0.13l1.65 0c1.12,0 1.12,-1.68 0,-1.68l-2.32 0 0 3.1 0.67 0 0 -1.42zm2.9 0l1.26 0 0 1.42 0.67 0 0 -3.1 -0.67 0 0 1.55 -1.17 0 1.09 -1.55 -0.17 0 -2.17 3.1 0.16 0 1 -1.42zm5.16 0l0 1.42 0.66 0 0 -3.1 -0.66 0 0 1.55 -2.04 0 0 -1.55 -0.66 0 0 3.1 0.66 0 0 -1.42 2.04 0zm4.02 1.28l0 -2.96 -0.67 0 0 2.96 -2.16 0 2.08 -2.96 -0.17 0 -2.17 3.1 3.71 0 0 -0.14 -0.62 0zm5.08 0.14l0.67 0 0 -3.1 -0.67 0 0 3.1zm-2.26 0l2.17 -3.1 -0.16 0 -2.17 3.1 0.16 0zm4.12 -1.42l0.67 0c0.07,1.19 1.16,1.51 1.99,1.51 0.85,0 1.99,-0.35 1.99,-1.65 0,-1.29 -1.14,-1.63 -1.99,-1.63 -0.85,0 -1.99,0.34 -1.99,1.64l-0.67 0 0 -1.55 -0.66 0 0 3.1 0.66 0 0 -1.42zm1.33 -0.13c0,-0.97 0.41,-1.51 1.33,-1.51 0.92,0 1.33,0.58 1.33,1.5 0,0.93 -0.41,1.52 -1.33,1.51 -0.92,0 -1.34,-0.54 -1.33,-1.5zm3.59 1.55l0.66 0 0 -3.1 -0.66 0 0 3.1zm2.27 0l0.76 0 -1.09 -1.55 -0.76 0 1.09 1.55zm-0.3 -3.1l-1.09 1.55 0.17 0 1.08 -1.55 -0.16 0zm4.6 2.45l-0.58 0c-0.2,0.38 -0.58,0.61 -1.15,0.6 -0.92,0 -1.33,-0.54 -1.33,-1.5 0,-0.97 0.41,-1.51 1.33,-1.51 0.58,0 0.95,0.23 1.15,0.62l0.6 0c-0.38,-0.56 -1.14,-0.75 -1.75,-0.75 -0.85,0 -1.99,0.34 -1.99,1.64 0,1.29 1.14,1.64 1.99,1.64 0.6,0 1.35,-0.2 1.73,-0.74z"/>
 </g>
</svg>
