<svg xmlns="http://www.w3.org/2000/svg" viewBox="0 0 223.5 40" enable-background="new 0 0 223.5 40"><style type="text/css">.st0{display:none;} .st1{display:inline;fill:#1D1D1B;} .st2{display:inline;} .st3{fill:#1D1D1B;} .st4{opacity:0.78;fill:#1D1D1B;enable-background:new ;}</style><g id="quadro_copy" class="st0"><path class="st1" d="M197.3 11c-1.2-1.5-3.8-4.2-8.7-4.2-6.5 0-12.4 4.5-12.4 13.3 0 8.9 5.9 13.5 12.4 13.5 4.5 0 7.2-2.4 8.7-4.3v3.5h4.4v-44.6h-4.4v22.8zm-8.2 18.6c-5.3 0-8.3-4.1-8.3-9.5 0-6.2 4-9.4 8.3-9.4 3.9 0 8.4 2.9 8.4 9.4.1 5.1-3 9.5-8.4 9.5zm48.4-22.8c-7.8 0-13.5 5.7-13.5 13.4s5.8 13.3 13.5 13.3 13.5-5.6 13.5-13.3-5.7-13.4-13.5-13.4zm0 22.8c-4.5 0-8.9-3.2-8.9-9.4s4.3-9.5 8.9-9.5c4.7 0 8.9 3.2 8.9 9.5.1 6.2-4.3 9.4-8.9 9.4zm-130.1 9.1c-2.3 0-4.3-1.1-6.5-2.3-2.1-1.2-4.4-2.4-7.3-2.9 10.7-1.1 18.8-9.7 18.8-21 0-12.2-9.5-21.1-21.2-21.1-11.7-.1-21.2 8.9-21.2 21 0 11.3 8.1 19.8 18.8 21-6.6 1.1-8.4 6.5-8.5 6.8l4.1 1.4c.1-.4 1.6-4 6.8-4 2.9 0 5.2 1.3 7.6 2.6 2.5 1.4 5.2 2.9 8.6 2.9 7.5 0 12.2-7.6 12.4-7.9l-3.7-2.3c-.1 0-3.7 5.8-8.7 5.8zm-32.8-26.3c0-9.4 7.4-16.8 16.6-16.8s16.6 7.5 16.6 16.8-7.4 16.8-16.6 16.8c-9.2.1-16.6-7.4-16.6-16.8zm144.6-5.6c1.3 0 2.8.5 3.9 1l-2.1 4c-1-.7-1.9-.9-2.6-.9-1.8 0-2.9.7-3.5 1.6-.7 1-1.5 2.7-1.5 6.9v13.4h-4.4v-25.4h4.4v2.8c.4-.7 2.3-3.4 5.8-3.4zm-53.1 4.2c-1.2-1.5-3.8-4.2-8.7-4.2-6.5 0-12.4 4.5-12.4 13.3 0 8.9 5.9 13.5 12.4 13.5 4.5 0 7.2-2.4 8.7-4.3v3.5h4.4v-25.4h-4.4v3.6zm-8.2 18.6c-5.3 0-8.3-4.1-8.3-9.5 0-6.2 4-9.4 8.3-9.4 3.9 0 8.4 2.9 8.4 9.4.1 5.1-3 9.5-8.4 9.5zm-22.7-22.2h4.4v15.3c0 3.1-.3 5.4-2.3 7.7-2.3 2.4-5.3 3.2-7.8 3.2s-5.5-.8-7.8-3.2c-2-2.2-2.3-4.5-2.3-7.7v-15.3h4.4v14.8c0 1.8 0 3.9 1.2 5.4.7.9 2 2 4.5 2 2.4 0 3.8-1.1 4.5-2 1.2-1.6 1.2-3.7 1.2-5.4v-14.8z"/><text transform="translate(207.802 51.708)" class="st1" font-family="ArialMT" font-size="12">Квадро</text></g><g id="line" class="st0"><path class="st3" d="M101.1-1.9c.3 0 .5.2.6.5v32.7h37.3c.3.1.5.4.5.6 0 .3-.2.6-.6.6h-37.8c-.4 0-.6-.3-.7-.7v-33.1c.2-.4.5-.6.7-.6zm44.7 0c.3 0 .5.2.6.5v33.3c0 .5-.3.7-.6.7s-.6-.2-.6-.6v-33.3c.1-.4.4-.6.6-.6zm53.2 0c.3 0 .5.2.6.5v33.3c0 .5-.3.7-.7.7-.1 0-.3 0-.3-.1l-42.2-32.5v31.8c0 .5-.3.7-.6.7s-.6-.2-.6-.6v-33.2c0-.3.3-.6.6-.6.2 0 .3 0 .5.2l42.1 32.4v-32c0-.4.3-.6.6-.6zm8.2 34.5c-.3 0-.7-.3-.7-.7v-33.2c.1-.4.3-.5.7-.6h43.2c.3.1.5.4.5.6 0 .3-.2.6-.6.6h-42.6v7.8h37.2c.3.1.5.4.5.6 0 .3-.2.6-.6.6h-37.2v22.9h42.6c.3.1.5.4.5.6 0 .3-.2.6-.6.6h-42.9v.2z"/><text transform="translate(220.726 51.708)" class="st1" font-family="ArialMT" font-size="12">Лайн</text></g><g id="allure" class="st0"><path class="st3" d="M161.6 32.5h-3.2v-4.7h-.1c-1.4 2.2-4.3 5.3-9.8 5.3-7.6 0-13.5-5.5-13.5-13.4 0-6 4.4-13 13.4-13 2.2 0 6.9.3 9.9 5h.1v-4.4h3.2v25.2zm-23.3-12.5c0 5.8 4.7 10 10.1 10 5.5 0 9.9-4.4 9.9-10 0-5.7-4.3-10.3-10-10.3-5.4.1-10 4.5-10 10.3zm69.8 12.5h-3.2v-3.6h-.1c-1.9 2.9-4.9 4.2-8.3 4.2-5.9 0-11-3.5-11-12.5v-13.3h3.4v13.3c0 7.1 4.1 9.5 8 9.5 3.5 0 7.7-1.8 7.7-8.9v-13.9h3.4v25.2h.1zm38.3-6.5c-1.7 2.4-4.5 4-7.9 4-3.5 0-6.5-1.7-8.2-4.4l17.5-8.6 3.2-1.5c-1.7-5.2-6.5-8.9-12.4-8.9-7.5 0-13.2 5.7-13.2 13.2s5.8 13.2 13.2 13.2c3.7 0 7.1-1.4 9.4-3.8l-1.6-3.2zm-17.6-6.1c0-5.7 4.1-10.1 9.8-10.1 3.5 0 6.4 1.7 8.2 4.4l-17.5 8.6c-.3-.9-.5-1.9-.5-2.9zm-61.4 12.6h3.4v-37.8l-3.4 1.7v36.1zm9.2-40.6v40.6h3.4v-42.3l-3.4 1.7zm47.3 15.1c-2.2.5-4.7 1.7-6.6 4.6h-.1v-4.4h-3.2v25.3h3.2v-12.6c.1-4.9 3.3-8.9 7.8-9.9l-1.1-3z"/><text transform="translate(212.626 51.708)" class="st1" font-family="ArialMT" font-size="12">Аллюр</text></g><g id="fusion" class="st0"><path class="st3" d="M137 12.7v10.1h-4.3v9.9h-9.6v-21.8c0-2.5.4-4.5 1.3-6.3 1.1-2.2 2.7-4 4.9-5.4 2.2-1.4 4.4-2.1 6.8-2.1h1v10.1h-.5c-1.2 0-2.2.4-2.8 1.2-.7.8-1 2-1 3.5v.9l4.2-.1zm4.2-5.3h9.6v14.5c0 1.5.6 2.2 1.8 2.2s1.8-.7 1.8-2.2v-14.5h9.6v14.3c0 3.3-1.1 6.1-3.3 8.4s-4.9 3.4-8.1 3.4c-3.7 0-6.6-1.3-8.8-4-1.7-2.1-2.6-5-2.6-8.7v-13.4zm42.6 0v10.1c-1.4 0-2.3.3-2.8.8s-.8 1.5-1 3c-.4 5-2.4 8.5-5.8 10.5-1.8 1.1-4.4 1.6-7.7 1.6h-1.3v-10.2h.4c1.5 0 2.6-.3 3.3-1 .7-.6 1-1.8 1.1-3.4.1-2.6.4-4.5.7-5.5.4-1.1 1.1-2.1 2.1-3.2 1.9-1.8 4.5-2.8 7.9-2.8l3.1.1zm12.8-.4v25.7h-9.6v-25.7h9.6zm-4.8-11.5c1.3 0 2.4.5 3.4 1.4s1.4 2 1.4 3.3-.4 2.4-1.4 3.3c-.9.9-2.1 1.3-3.5 1.3s-2.6-.4-3.5-1.3-1.4-2-1.4-3.3.5-2.3 1.4-3.3c1.1-.9 2.3-1.4 3.6-1.4zm20.6 11c3.6 0 6.8 1.3 9.4 3.9 2.6 2.6 3.9 5.8 3.9 9.4 0 3.7-1.3 6.9-4 9.5-2.6 2.6-5.8 3.9-9.5 3.9s-6.9-1.3-9.6-3.9c-2.6-2.6-4-5.8-4-9.5 0-3.8 1.3-6.9 4-9.5 2.6-2.6 5.9-3.8 9.8-3.8zm-.3 9.5c-1 0-1.9.4-2.6 1.1-.7.7-1.1 1.7-1.1 2.7 0 1.1.4 2 1.1 2.7.7.8 1.6 1.1 2.6 1.1s1.9-.4 2.6-1.1c.7-.8 1.1-1.7 1.1-2.7 0-1.1-.4-2-1.1-2.7-.7-.8-1.5-1.1-2.6-1.1zm38.9 16.7h-9.6v-14.5c0-1.5-.6-2.2-1.8-2.2s-1.8.7-1.8 2.2v14.5h-9.6v-14.3c0-3.3 1.1-6.2 3.3-8.5s4.9-3.4 8.1-3.4c3.7 0 6.6 1.3 8.8 4 1.7 2.1 2.6 5 2.6 8.7v13.5z"/><text transform="translate(208.893 51.708)" class="st1" font-family="ArialMT" font-size="12">Фьюжн</text></g><g id="platinum_copy" class="st0"><g class="st2"><path class="st3" d="M43.3 33.2c-3.6 0-5.8-.3-5.8-.3v11.2h-7.1v-36.3s5-1.1 13-1.1c11.2 0 13 1.7 13 13.5-.1 11.3-1.2 13-13.1 13zm5.7-13.3c0-8.9-.4-8.9-6-8.9-3.4 0-5.5.3-5.5.3v17.4s2.1.3 5.5.3c5.8 0 6 0 6-8.6v-.5zm13 12.7v-36.7h7.1v36.7h-7.1zm25.8.6c-6.8 0-13 0-13-8.2 0-7.6 4.1-7.6 10.2-7.6h8.7v-1.7c0-4.8-1.4-5-6-5-6.8-.1-11.4.6-11.4.6v-3.5s4.7-1.1 12.2-1.1c7.9 0 12.2.6 12.2 9v16.4c.1.1-4.9 1.1-12.9 1.1zm5.9-12.1h-6.6c-3.9 0-4.9 0-4.9 4 0 4.3 1.7 4.3 5.8 4.3 3.5 0 5.8-.3 5.8-.3v-8h-.1zm25.6 12.1c-7.4 0-9.1-2.6-9.1-9v-12.6h-5.2v-4.3h5.3v-8.6h7v8.6h9.5v4.3h-9.5v12.6c0 4.1.1 4.8 4.9 4.8 3.9 0 6.2-.5 6.2-.5v3.6c0 .1-3.5 1.1-9.1 1.1zm13.3-30.4v-6.9h7.1v6.9h-7.1zm0 29.8v-25.3h7.1v25.3h-7.1zm31.8 0v-16.9c0-4.7-1.7-4.7-5.6-4.7-3.4 0-5.5.3-5.5.3v21.3h-7.1v-24.8s4.9-1.1 12.7-1.1c8.4 0 12.7.6 12.7 9v16.9h-7.2zm26 .6c-9.6 0-12.7-.8-12.7-9v-16.9h7.1v16.9c0 4.8 1.3 4.8 5.5 4.8 3.5 0 5.6-.3 5.6-.3v-21.4h7v24.8c.2.1-4.6 1.1-12.5 1.1zm53.5-.6v-16.9c0-4.7-1.7-4.7-5.1-4.7-3.1 0-5.7.4-5.7.4s.7 1.1.7 4.3v16.9h-7.1v-16.9c0-4.7-1.7-4.7-5.1-4.7-3.1 0-5 .3-5 .3v21.3h-7.1v-24.8s4.7-1.1 12.2-1.1c4.9 0 6.6.8 7.6.9.9-.1 4.5-.9 9.7-.9 7.9 0 12.2.6 12.2 9v16.9h-7.3z"/><path class="st4" d="M226.6 14.5c0 .4.1.8.1 1.3v.7c2.3-.1 4.7-.2 7.1-.2v-1.8c-2.5-.1-4.8-.1-7.2 0zm-17.2 2.8c2.3-.2 4.7-.3 7.1-.4v-2.2c-2.4.1-4.8.1-7.1.2v2.4zm41.5-3.1h-7.1c0 .4.1.9.1 1.5v.2h7.1v-.2c0-.5 0-1-.1-1.5zm-133.6 10v-1.9c-2.5.4-4.8.8-7 1.2v.6c0 6.4 1.7 9 9.1 9 5.6 0 9.1-1.1 9.1-1.1v-3.5s-2.3.5-6.2.5c-4.9 0-5-.7-5-4.8zm-23.6 4.8s-1.2.2-3.4.3c-2.6 1.3-4.2 2.6-4.6 4h2c8 0 12.9-1.1 12.9-1.1v-6.5c-2.7.7-5 1.4-7 2.1l.1 1.2zm52.4-.1c1.8-1 4.2-2.1 7.1-3v-7.8c-2.4.2-4.8.4-7.1.7v10.1zm50-10.5c2.3-.2 4.6-.4 7-.6v-2.7c-2.4.1-4.7.2-7 .3v3zm-63.5 14.2h7.1v-13.2c-2.5.3-4.8.5-7.1.8v12.4zm45.2-12c2.3-.3 4.7-.7 7.1-1v-3.7c-2.4.1-4.8.3-7.1.4v4.3zm-13.4 2.4c2.2-.5 4.6-.9 7-1.4v-4.9c-2.4.2-4.7.3-7 .5v5.8zm85.9-12h-9.9c1 0 1.9.2 2.4.7h7.7c0-.2-.1-.4-.2-.7zm-26.1.2c.7.1 1.2.3 1.6.8l7.5-.1c-.1-.3-.2-.4-.2-.4s1.8-.3 4.1-.4c-4.4 0-8.7 0-13 .1zm-114 7.6c2.3-.3 4.6-.6 7-.8v-3.6c-2.4.1-4.7.3-7 .4v4zm-61.2.9v.7c0 8.6-.2 8.6-6 8.6-3.4 0-5.5-.3-5.5-.3v-7.6c-2.5.3-4.9.7-7.1 1v22h7.1v-11.2s2.2.3 5.8.3c11.9 0 13-1.7 13-13v-1.3c-2.5.3-5 .6-7.3.8zm44.7-3.9v1.6h-8.7c-6.1 0-10.1 0-10.2 7.5 2.3-.6 4.7-1.2 7.4-1.7.4-2.1 1.7-2.1 4.8-2.1h6.6c2.3-.4 4.6-.7 7-1.1v-4.7c-2.2.2-4.6.3-6.9.5zm115.7-3.5l7.1-.2v-.8h.4l-7.6.1v.9h.1zm-31.6 1.1l7.1-.3v-1.3c-2.4.1-4.8.1-7.1.2v1.4zm-45.2 3c2.3-.2 4.7-.4 7.1-.6v-2.5c-2.4.1-4.8.2-7.1.3v2.8zm13.5-1.1c2.3-.2 4.7-.3 7.1-.5v-2.1c-2.4.1-4.8.2-7.1.3v2.3zm17.7-2.9c.3.4.4 1 .5 1.7l7-.4c-.1-.6-.1-1.1-.3-1.6l-7.2.3zm-101.8 17.1c1.8-1 4.2-2 7.1-3v-8.8c-2.4.2-4.8.4-7.1.7v11.1zm134.1-16.8c2.3-.1 4.7-.2 7-.2v-1c-2.4 0-4.7.1-7 .1v1.1z"/></g><text transform="translate(194.723 51.708)" class="st1" font-family="ArialMT" font-size="12">Платинум</text></g><g id="dante_copy" class="st0"><path class="st3" d="M170.2-16.2c0 1.6-.2 3.3-.6 5.1-.4 1.8-.7 2.7-1.1 2.7-.2 0-.3-.1-.3-.3s0-.4.1-.6c.7-1.9 1.1-4.2 1.1-6.8 0-4-1.2-7.2-3.6-9.6-2.4-2.4-5.6-3.6-9.6-3.6-7.7 0-15.1 3.6-22.3 10.9 2.7 5.1 4.1 10.4 4.1 16 0 10.4-4 19.2-11.9 26.4-8 7.2-17.7 10.8-29.2 10.8-3.5 0-8.4-.5-14.6-1.5-5.3 1-10.5 1.5-15.4 1.5-8.4 0-12.5-.8-12.5-2.5 0-.8 1-1.5 3.1-2.2 2-.6 4.4-.9 7.1-.9 3.3 0 9.8 1.1 19.7 3.2 6.6-1.7 11.8-4.5 15.6-8.2 3.7-3.6 9.4-11.6 17-23.8 4.6-7.4 9.7-13.7 15.2-18.9-4.6-7.8-12.1-11.7-22.5-11.7-10.6 0-20.4 4.2-29.3 12.6-4.5 4.2-8.1 8.9-10.8 14.1-2.7 5.1-4 9.8-4 14.1 0 3.4 1.1 6.2 3.3 8.2 2.2 2.1 5 3.1 8.6 3.1 6 0 12.3-3.3 18.8-9.8 6.5-6.5 9.8-12.8 9.8-18.8 0-2.3-.6-4.1-1.9-5.5s-2.9-2.1-5-2.1c-2.3 0-3.5.4-3.5 1.1 0 .2.2.3.5.3.2 0 .3 0 .5-.1h.7c1.6 0 2.3.7 2.3 2.1 0 1-.4 2-1.2 2.7-.8.8-1.7 1.2-2.8 1.2-1.9 0-2.9-1-2.9-3.1 0-1.4.6-2.6 1.9-3.7 1.3-1 2.8-1.5 4.6-1.5 2.3 0 4.2.8 5.6 2.3s2.2 3.5 2.2 6c0 6.4-3.3 12.9-10 19.6s-13.2 10-19.6 10c-4.4 0-8-1.5-10.9-4.4-2.8-2.9-4.3-6.7-4.3-11.3 0-9.8 4.9-18.7 14.6-26.5s20.7-11.7 32.9-11.7c10.4 0 18.3 3.8 23.5 11.5 7.7-7.1 15.6-10.7 23.5-10.7 4 0 7.2 1.3 9.7 3.9 2.6 2.9 3.8 6.2 3.8 10.4zm-89.5 49.3c-8.7-1.2-15.3-1.9-19.6-1.9-3.8 0-5.7.4-5.7 1.1 0 1.1 4.1 1.7 12.4 1.7 4.8 0 9.1-.3 12.9-.9zm54.8-39c0-4.1-.9-7.8-2.6-11.4-4.3 4.9-8.1 11-11.5 18.4-4.5 9.8-9.1 16.8-13.9 21.1-4.9 4.4-12.2 7.9-21.7 10.6 4 .9 8.3 1.3 12.8 1.3 12.1 0 22-5.9 29.5-17.6 4.9-7.6 7.4-15.1 7.4-22.4zm37.4 23.6c0 .7-2.3 3.7-6.9 9.2-3.7 4.5-6.7 6.8-8.8 6.8-1.5 0-2.6-.5-3.6-1.6-.9-1.1-1.4-2.5-1.4-4.1 0-1.7.5-3.6 1.5-5.6-3.2 4.4-5.6 7.4-7.3 9-1.7 1.6-3.3 2.3-4.9 2.3-1.7 0-3.1-.7-4.2-2.2-1.1-1.4-1.7-3.3-1.7-5.4 0-6.1 4.3-11.5 12.9-16.1 3.8-2.1 6.8-3.1 9.1-3.1 2 0 2.9.9 2.9 2.8 0 .5-.1 1.3-.4 2.1l2.4-4.6c.9.2 1.8.3 2.5.3.9 0 2-.1 3.3-.3l-8.3 13.9c-2.9 4.9-4.4 8.1-4.4 9.6s.6 2.2 1.9 2.2c1.3 0 3.3-1.4 6.1-4.4 2.8-2.9 5.6-6.5 8.5-10.7.2-.3.4-.5.5-.5.2.2.3.3.3.4zm-13.1-7.8c0-1.5-.7-2.3-2.1-2.3-2.9 0-6.7 2.8-11.5 8.5-4.7 5.7-7.1 10.3-7.1 13.8 0 2.1.9 3.1 2.8 3.1 2.2 0 6-3.6 11.3-10.9 4.4-5.9 6.6-10 6.6-12.2zm51.2 7.8c0 .7-2.3 3.7-6.9 9.2-3.8 4.5-6.7 6.8-8.9 6.8-1.4 0-2.6-.6-3.6-1.7s-1.4-2.5-1.4-4.1c0-1.4.3-2.7.9-4 .6-1.2 2.1-3.6 4.6-7.2 2.6-3.8 3.8-6.2 3.8-7.3 0-1.3-.7-1.9-2-1.9-4.6 0-11.7 8.6-21.4 25.7-1.6-.1-2.5-.2-2.8-.2-1.1 0-2.2.1-3.1.2l7.4-11.7c4.2-6.7 6.3-10.9 6.3-12.6 0-.9-.4-1.4-1.2-1.4-1.6 0-4.8 3.4-9.6 10.2-.3.4-.5.6-.7.7-.2 0-.3-.1-.3-.3s.1-.3.2-.4l.9-1.2c4.8-6.5 8.1-9.8 9.8-9.8 1.1 0 2 .5 2.8 1.5s1.1 2.2 1.1 3.5c0 2-1.2 4.8-3.6 8.5 3.7-5.2 6.6-8.7 8.6-10.6s3.9-2.8 5.6-2.8c1.4 0 2.6.6 3.5 1.7s1.4 2.5 1.4 4.2c0 2.1-1.5 5.4-4.4 9.7-3 4.5-4.5 7.3-4.5 8.5 0 1.3.6 1.9 1.9 1.9 2.8 0 7.7-5 14.6-15.1.2-.3.3-.5.5-.5.4.3.5.4.5.5zm17.5-10.9l-.4.7h-6.2l-10.6 18.1c-1.3 2.2-1.9 3.9-1.9 5.2 0 1.4.7 2.1 2.2 2.1 2.9 0 7.7-5 14.6-15.1.2-.3.4-.5.6-.5.2 0 .3.1.3.3 0 .1-.2.3-.5.8l-2 2.8c-6 8.3-10.4 12.4-13.5 12.4-1.5 0-2.7-.5-3.7-1.6s-1.5-2.4-1.5-4c0-1.9.8-4.3 2.5-7.1l8-13.4h-4.8l.5-.7h4.7l5.6-9.2c.9.3 1.9.4 2.7.4.9 0 1.8-.1 2.8-.4l-5.5 9.2h6.1zm22.5 11c0 .1-.3.5-.9 1.2l-2 2.6c-6.6 8.1-12.2 12.1-16.9 12.1-2.2 0-4.1-.8-5.6-2.4s-2.3-3.6-2.3-6c0-5.7 4-10.7 11.9-15 4.2-2.3 7.6-3.4 10.2-3.4 1.1 0 2.1.3 2.9 1 .8.7 1.2 1.5 1.2 2.5 0 2.3-1.5 4.2-4.5 5.8s-7.9 3.1-14.9 4.5c-2.2 3.3-3.2 6-3.2 8.2 0 2.7 1.5 4.1 4.4 4.1 5 0 11.1-4.9 18.4-14.6.4-.5.7-.8 1-.8.2-.1.3 0 .3.2zm-4-8.8c0-1-.6-1.5-1.7-1.5-1.7 0-3.9 1.2-6.6 3.5-2.7 2.3-5.4 5.3-8 9 4.6-1.2 8.4-2.8 11.6-5 3.1-2.1 4.7-4.1 4.7-6z"/><text transform="translate(215.506 51.708)" class="st1" font-family="ArialMT" font-size="12">Данте</text></g><g id="grand" class="st0"><path class="st3" d="M150.2 32.6c-.8.1-1.3.2-2.2.2-7.3 0-13.2-5.7-13.2-12.9 0-7.1 5.9-12.9 13.2-12.9 2.9 0 5.5.9 7.7 2.5l-.5.7c-2-1.4-4.4-2.3-7.2-2.3-6.9 0-12.4 5.4-12.4 12.1s5.6 12.1 12.4 12.1c.7 0 1.4 0 2.1-.1v-.8c-.7.1-1.4.2-2.1.2-6.4 0-11.6-5-11.6-11.3s5.2-11.3 11.6-11.3c2.6 0 4.8.8 6.8 2.2l-.5.6c-1.8-1.3-3.9-2-6.3-2-6 0-10.8 4.7-10.8 10.5s4.8 10.5 10.8 10.5c.7 0 1.4-.1 2.1-.2v-.9c-.7.1-1.4.2-2.1.2-5.6 0-10-4.3-10-9.7s4.5-9.7 10-9.7c2.2 0 4.2.7 5.9 1.8l-.5.7c-1.6-1-3.3-1.7-5.4-1.7-5.1 0-9.3 3.9-9.3 8.9s4.1 8.9 9.3 8.9c.7 0 1.4-.1 2.1-.2v-.8c-.7.1-1.4.2-2.1.2-4.7 0-8.5-3.6-8.5-8.1s3.8-8.1 8.5-8.1c1.9 0 3.5.6 4.9 1.6l-.4.7c-1.3-.9-2.8-1.4-4.5-1.4-4.3 0-7.7 3.2-7.7 7.3s3.4 7.3 7.7 7.3c.8 0 1.5-.1 2.1-.3v-6.7h.8v12.3l-.7-.1zm1.6 0v-12.2h.8v12.3l-.8-.1zm1.6 0v-12.2h.8v12.3l-.8-.1zm1.6 0v-12.2h.8v12.3l-.8-.1zm5.1 0v-25.3h.8v25.3h-.8zm1.6 0v-25.3h.8v25.3h-.8zm1.6 0v-25.3h.8v25.3h-.8zm1.6 0v-25.3h3.4c4.4 0 8 3.6 8 8 0 3-1.6 5.5-4 6.9l4.1 10.4h-.8l-6-15.2c.8-.7 1.1-1.3 1.1-2.1 0-1.4-1-2.4-2.4-2.4h-2.6v6.1l.2-.1 5.4 13.7h-.8l-4.8-12.1v12.1h-.8zm.8-24.5v.8h2.6c3.5 0 6.4 2.9 6.4 6.4 0 2.3-1.1 4.3-3 5.5l.3.7c2.1-1.3 3.5-3.5 3.5-6.2 0-4-3.2-7.2-7.2-7.2h-2.6zm0 1.6v.8h2.6c2.7 0 4.8 2.1 4.8 4.8 0 1.6-.8 3.1-2 3.9l.3.7c1.5-1 2.5-2.7 2.5-4.7 0-3.1-2.5-5.6-5.6-5.6l-2.6.1zm0 1.6v.8h2.6c1.8 0 3.2 1.4 3.2 3.2 0 .9-.3 1.7-1 2.4l.3.8c.9-.7 1.5-1.8 1.5-3.1 0-2.2-1.8-4-4-4l-2.6-.1zm1.6 7.1l5.6 14.2h-.8l-5.5-14 .7-.2zm1.6-.5l5.8 14.7h-.9l-5.6-14.5.7-.2zm8.9 14.7l9.7-25.3h.8l-9.7 25.3h-.8zm1.7 0l9.7-25.3h.8l-9.7 25.3h-.8zm1.7 0l9.7-25.3h.8l-9.7 25.3h-.8zm1.7 0l9.7-25.3h.9l10.4 25.3h-.9l-10-24.3-.4 1.2 9.5 23.1h-.8l-9.1-22.1-.4 1 8.6 21h-.8l-8.2-19.9-.4 1.1 7.7 18.8h-.8l-1.8-4.3h-10.7l-1.6 4.3-.9.1zm2.8-5h10l-.3-.8h-9.4l-.3.8zm.6-1.6h8.8l-.3-.8h-8.2l-.3.8zm.6-1.6h7.5l-.3-.8h-6.9l-.3.8zm.7-1.6h6.3l-3.3-7.9-3 7.9zm18.8 9.8v-25.3h.9l14.9 25.3h-.9l-9.3-15.8v15.8h-.8v-17.2l-.8-1.3v18.5h-.8v-19.9l-.8-1.3v21.2h-.8v-22.6l-.8-1.3v23.9h-.8zm2.8-25.3l14.8 25.3h-.9l-14.9-25.3h1zm1.8 0l14.9 25.3h-.9l-14.9-25.3h.9zm15.8 25.3l-14.9-25.3h.9l9.3 15.9v-15.9h.8v17.2l.8 1.4v-18.6h.8v19.9l.8 1.4v-21.3h.8v22.6l.8 1.3v-24h.8v25.3l-.9.1zm5.3 0v-25.3h.8v25.3h-.8zm1.6 0v-25.3h.8v25.3h-.8zm1.6 0v-25.3h.8v25.3h-.8zm1.6 0v-25.3h.9c7.2 0 13.2 5.6 13.2 12.7 0 7-6 12.7-13.2 12.7l-.9-.1zm.8-24.5v.8c6.5 0 11.7 4.9 11.7 11.1s-5.2 11.1-11.7 11.1v.8c7 0 12.5-5.3 12.5-11.9s-5.6-11.9-12.5-11.9zm0 1.6v.8c5.7 0 10.2 4.2 10.2 9.5s-4.4 9.5-10.2 9.5v.8c6.1 0 11-4.5 11-10.3s-4.9-10.3-11-10.3zm0 1.5v.8c4.8 0 8.6 3.5 8.6 8 0 4.4-3.7 8-8.6 8v.8c5.3 0 9.4-3.9 9.4-8.7s-4.2-8.9-9.4-8.9zm0 1.6v14.3c4.4 0 7.8-3.1 7.8-7.2-.1-3.9-3.4-7.1-7.8-7.1z"/><text transform="translate(216.118 51.708)" class="st1" font-family="ArialMT" font-size="12">Гранд</text></g><g id="neoClassic" class="st0"><path class="st3" d="M35.1 7.7h.7l12.6 24 6.4-24h.8l-6.7 25h-.7l-12.6-24-6.4 24h-.8l6.7-25zm28 0h17.5l-.2.7h-16.7l-3.1 11.4h15.2l-.2.7h-15.2l-3.1 11.5h16.9l-.2.7h-17.6l6.7-25zm43.4 10.4c0 4.1-1.8 8.1-4.6 10.9-2.5 2.5-5.9 4.1-9.6 4.1-6.4 0-10.7-4.8-10.7-10.8 0-4.1 1.8-8.1 4.6-10.9 2.5-2.5 5.9-4.1 9.6-4.1 6.4 0 10.7 4.8 10.7 10.8zm-5.1 10.5c2.7-2.7 4.4-6.5 4.4-10.4 0-5.7-4-10.2-10-10.2-3.5 0-6.6 1.5-9 3.9-2.7 2.7-4.4 6.5-4.4 10.4 0 5.7 4 10.2 10 10.2 3.5 0 6.6-1.5 9-3.9zm27.9-20.4v7.6c-1-1.1-1.9-1.8-2.9-2.3-.9-.5-2-.7-3-.7-2 0-3.6.7-4.9 2.1-1.2 1.4-1.9 3.2-1.9 5.3 0 2 .6 3.7 1.9 5.1s2.9 2 4.8 2c1.1 0 2.1-.2 3-.7s1.9-1.3 2.9-2.3v7.6c-1.1.5-2.2.9-3.3 1.2-1.1.3-2.2.4-3.3.4-1.4 0-2.7-.2-3.9-.5-1.2-.3-2.3-.8-3.3-1.5-1.9-1.3-3.4-2.9-4.4-4.8s-1.5-4.1-1.5-6.6c0-2 .3-3.7 1-5.3.6-1.6 1.6-3.1 2.9-4.4 1.2-1.2 2.6-2.2 4.1-2.8s3.2-.9 5.1-.9c1.1 0 2.2.1 3.3.4 1.2.2 2.3.6 3.4 1.1zm4 24.5v-25.5h7v19.6h8.7v6l-15.7-.1zm16 0l8.8-25.6h8.7l8.8 25.6h-6.9l-1.3-4.6h-9.9l-1.3 4.6h-6.9zm9.7-9.5h6.9l-2.6-8.4c-.1-.3-.2-.7-.3-1.2-.1-.6-.3-1.3-.5-2.2-.2.6-.3 1.2-.4 1.8-.1.6-.3 1.1-.4 1.6l-2.7 8.4zm20.2 1.3c1 1.2 2.1 2.1 3.1 2.6 1 .6 2 .9 3 .9.9 0 1.7-.2 2.3-.7s.9-1.1.9-1.9-.3-1.5-.8-2-1.7-.9-3.5-1.4c-2.5-.7-4.3-1.6-5.3-2.6-1-1.1-1.6-2.6-1.6-4.5 0-2.4.8-4.4 2.5-6 1.6-1.5 3.8-2.3 6.4-2.3 1.4 0 2.7.2 4 .6s2.5 1 3.6 1.7l-2.2 5c-.8-.7-1.6-1.2-2.4-1.5-.8-.3-1.7-.5-2.5-.5s-1.5.2-2 .6c-.5.4-.8.9-.8 1.5s.2 1.2.7 1.5c.5.4 1.3.8 2.7 1.1l.3.1c2.8.8 4.7 1.6 5.6 2.5.6.6 1.1 1.4 1.4 2.3.3.9.5 1.9.5 2.9 0 2.7-.9 4.9-2.7 6.5s-4.2 2.5-7.1 2.5c-1.8 0-3.4-.3-4.9-.9s-2.9-1.6-4.2-2.8l3-5.2zm20.8 0c1 1.2 2.1 2.1 3.1 2.6 1 .6 2 .9 3 .9.9 0 1.7-.2 2.3-.7s.9-1.1.9-1.9-.3-1.5-.8-2-1.7-.9-3.5-1.4c-2.5-.7-4.3-1.6-5.3-2.6-1-1.1-1.6-2.6-1.6-4.5 0-2.4.8-4.4 2.5-6 1.6-1.5 3.8-2.3 6.4-2.3 1.4 0 2.7.2 4 .6s2.5 1 3.6 1.7l-2.2 5c-.8-.7-1.6-1.2-2.4-1.5-.8-.3-1.7-.5-2.5-.5s-1.5.2-2 .6c-.5.4-.8.9-.8 1.5s.2 1.2.7 1.5c.5.4 1.3.8 2.7 1.1l.3.1c2.8.8 4.7 1.6 5.6 2.5.6.6 1.1 1.4 1.4 2.3.3.9.5 1.9.5 2.9 0 2.7-.9 4.9-2.7 6.5s-4.2 2.5-7.1 2.5c-1.8 0-3.4-.3-4.9-.9s-2.9-1.6-4.2-2.8l3-5.2zm19.8 8.2v-25.5h7v25.6l-7-.1zm31.2-24.5v7.6c-1-1.1-1.9-1.8-2.9-2.3-.9-.5-2-.7-3-.7-2 0-3.6.7-4.9 2.1-1.2 1.4-1.9 3.2-1.9 5.3 0 2 .6 3.7 1.9 5.1 1.3 1.4 2.9 2 4.8 2 1.1 0 2.1-.2 3-.7s1.9-1.3 2.9-2.3v7.6c-1.1.5-2.2.9-3.3 1.2s-2.2.4-3.3.4c-1.4 0-2.7-.2-3.9-.5s-2.3-.8-3.3-1.5c-1.9-1.3-3.4-2.9-4.4-4.8s-1.5-4.1-1.5-6.6c0-2 .3-3.7 1-5.3.6-1.6 1.6-3.1 2.9-4.4 1.2-1.2 2.6-2.2 4.1-2.8s3.2-.9 5.1-.9c1.1 0 2.2.1 3.3.4 1.2.2 2.3.6 3.4 1.1z"/><text transform="translate(184.126 51.708)" class="st1" font-family="ArialMT" font-size="12">Нэоклассик</text></g><g id="novella" class="st0"><path class="st3" d="M31.4 7.4h10.1l17.5 18.1v-10.8c0-1.3-.2-2.5-.7-3.5s-1.1-1.7-2-2.3c-.5-.3-.9-.5-1.4-.6s-1.1-.2-1.9-.3v-.7h12.5v.7h-.3c-1.8 0-3.2.6-4.1 1.7-.9 1.2-1.4 2.8-1.4 5v18h-.6l-21.7-22.2v15c0 1.5.2 2.6.5 3.5s.9 1.6 1.7 2c.6.4 1.4.6 2.3.7.5.1 1.2.1 2.2.2v.7h-13.1v-.7c1.3-.1 2.4-.3 3.3-.7.8-.4 1.5-1 1.9-1.8s.6-1.8.6-3v-14.2c0-.9-.2-1.6-.6-2.2-.4-.6-1-1.1-1.7-1.4-.7-.3-1.6-.5-2.7-.5h-.3v-.7h-.1zm50.5-.5c2.4 0 4.5.4 6.5 1.1s3.6 1.8 5.1 3.3c1.2 1.2 2.2 2.6 2.8 4.1.7 1.5 1 3 1 4.6 0 2.4-.7 4.5-2 6.5s-3.2 3.6-5.5 4.7c-2.3 1.2-4.8 1.7-7.6 1.7-2.1 0-4.1-.3-5.9-1s-3.5-1.6-4.9-2.8-2.5-2.6-3.3-4.2-1.2-3.3-1.2-5c0-2.3.7-4.5 2-6.5 1.4-2 3.2-3.6 5.5-4.8 2.4-1.1 4.9-1.7 7.5-1.7zm.5.7c-1.1 0-2.1.2-3.1.6-1 .4-1.8.9-2.4 1.6-.7.8-1.3 1.7-1.8 2.7s-.9 2.2-1.2 3.5c-.3 1.3-.4 2.7-.4 4.1 0 1.8.2 3.5.6 5.1.4 1.5 1 2.8 1.8 3.9s1.7 1.9 2.8 2.5c1.1.6 2.3.9 3.6.9 1.8 0 3.3-.5 4.6-1.5 1.3-1 2.3-2.5 3-4.4s1.1-4.1 1.1-6.7c0-1.7-.2-3.3-.6-4.7-.4-1.5-.9-2.7-1.7-3.8-.7-1.1-1.6-1.9-2.6-2.6-.5-.3-1.1-.6-1.7-.8-.7-.3-1.4-.4-2-.4zm15.4-.2h14.7v.7h-1.8c-.8 0-1.5.2-1.9.5-.5.3-.7.8-.7 1.4 0 .6.2 1.3.5 2.1l6.9 15.1 5.8-13c.5-1 .7-1.9.7-2.6 0-1-.3-1.9-1-2.5-.6-.6-1.5-.9-2.7-1v-.7h10.1v.7c-1 .1-1.8.4-2.6.8s-1.4 1.1-2.1 1.9c-.6.8-1.3 2-1.9 3.4l-8.4 18.8h-.6l-9.7-21.3c-1.2-2.5-2.6-3.8-4.5-3.8h-.9l.1-.5zm31 0h26.8v9.7h-.6c-.5-1.7-.9-3-1.3-3.8-.4-.8-.9-1.6-1.5-2.4-.8-.9-1.6-1.5-2.5-1.9-1.5-.6-3.3-.9-5.4-.9h-5v12h1.3c2 0 3.6-.9 4.7-2.6.6-.9 1-1.9 1.3-3.1.1-.5.3-1.3.4-2.3h.6v16.5h-.6c-.1-.9-.3-1.7-.5-2.5s-.4-1.4-.7-1.9c-.2-.5-.6-1-.9-1.5-1.1-1.3-2.6-2-4.6-2h-1v11.3h4.1c1.2 0 2.3-.1 3.3-.3s1.9-.4 2.6-.8c.8-.4 1.5-.8 2.2-1.4 1.2-1 2.1-2.2 2.7-3.7.4-.9.8-2 1.2-3.5h.7v10.4h-27.4v-.7h.7c3 0 4.6-1.5 4.6-4.6v-14.8c0-1.6-.4-2.7-1.1-3.5-.7-.7-1.9-1.1-3.5-1.1h-.7l.1-.6zm31.9 0h17.2v.7h-1.8c-1.5 0-2.7.4-3.4 1.1-.7.7-1.1 1.9-1.1 3.5v19.3h6.5c1.3 0 2.5-.3 3.6-.9s2.1-1.4 3-2.4c.5-.6.9-1.3 1.3-1.9.4-.6.8-1.4 1.1-2.3s.7-1.9 1-3.1h.7v11.1h-28v-.7h.9c3 0 4.6-1.5 4.6-4.6v-14.6c0-3-1.5-4.6-4.6-4.6h-.9v-.6h-.1zm30.4 0h17.2v.7h-1.8c-1.5 0-2.7.4-3.4 1.1-.7.7-1.1 1.9-1.1 3.5v19.3h6.5c1.3 0 2.5-.3 3.6-.9s2.1-1.4 3-2.4c.5-.6.9-1.3 1.3-1.9.4-.6.7-1.4 1.1-2.3.3-.9.7-1.9 1-3.1h.7v11.1h-28v-.7h.9c3 0 4.6-1.5 4.6-4.6v-14.6c0-3-1.5-4.6-4.6-4.6h-.9v-.6h-.1zm43.9-.5h.7l10.1 22c.3.7.7 1.2 1.1 1.7.4.4.9.8 1.4 1s1.1.3 1.8.3h.7v.7h-14.6v-.7h1.9c.9 0 1.6-.1 2.1-.4.4-.3.7-.7.7-1.2 0-.3-.1-.7-.3-1.2s-.6-1.4-1.1-2.6c0-.1-.1-.2-.2-.4s-.2-.3-.2-.5l-.4-.9h-10.7l-.8 1.9c-.3.6-.4 1.3-.4 1.9s.2 1.1.5 1.6.7.9 1.2 1.2c.3.2.6.3.9.4.3.1.6.1 1.1.1v.7h-10.5v-.7c.7-.1 1.3-.2 1.8-.4.4-.2.9-.5 1.5-.9 1.3-1 2.5-2.8 3.7-5.6l8-18zm-1.9 5.9l-4.9 11.2h10l-5.1-11.2z"/><text transform="translate(195.118 51.708)" class="st1" font-family="ArialMT" font-size="12">Новеллла</text></g><g id="sigma" class="st0"><path class="st1" d="M164.6 33h2v-25.8h-2v25.8zm73.2-27.4l-12.9 27.8h.1c3.7-2.3 8.1-3.7 12.8-3.7s9.1 1.4 12.8 3.7h.1l-12.9-27.8zm-84.1 13.3l-2.2-.8c-.5-.2-1.1-.5-1.7-.9-1.3-.9-1.9-2-1.9-3.6 0-1.2.5-2.4 1.4-3.4s2.3-1.6 4-1.6c2 0 3.4.6 5.8 2v-2.1c-2-1.1-4-1.6-6-1.6-2.1 0-3.9.7-5.3 2.1-1.4 1.4-2 3-2 4.7 0 1.9.8 3.6 2.3 4.9.8.7 2.3 1.4 4.7 2.2 1.3.5 2.2.8 3.4 1.7s1.9 2.2 1.9 3.8c0 1.3-.5 2.5-1.5 3.6-.9 1.1-2.3 1.6-4 1.6-2.2 0-4-.9-6.5-2.7v2.3c2.2 1.5 4.5 2.3 6.6 2.3 1.9 0 3.7-.6 5.2-1.9 1.6-1.3 2.3-3 2.3-5.2s-.8-3.9-2.2-5c-1.3-1.2-2.5-1.8-4.3-2.4zm57.3.3l-9.8-12h-2v25.8h2v-22.9l9.8 12.1 9.8-12.1v22.9h2v-25.8h-2l-9.8 12zm-24.2 3.7h5.5v7c-2.8 1.1-5.3 1.6-7.8 1.6-3 0-5.6-1.1-7.8-3.1-2.2-2.1-3.4-4.9-3.4-8.3s1.1-6.2 3.4-8.3c2.2-2.1 4.9-3.1 7.9-3.1 3.4 0 6.5.9 9.2 2.6v-2.3c-1-.5-1.8-.8-2.5-1-.6-.2-1.5-.5-2.8-.8-1.2-.3-2.5-.4-3.6-.4-4.1 0-7.3 1.2-10 3.8-2.6 2.5-3.9 5.6-3.9 9.4 0 3.9 1.4 7.1 4.1 9.6 2.8 2.5 5.9 3.7 9.4 3.7 3.3 0 6.5-.7 9.7-2.2v-9.9h-7.5v1.7h.1z"/><text transform="translate(215.313 51.708)" class="st1" font-family="ArialMT" font-size="12">Сигма</text></g><g id="trend" class="st0"><path class="st3" d="M131.7 7.3h20.6v3.9h-8.1v21.6h-4.5v-21.6h-8.1v-3.9h.1zm23.6 0h12.2c5.6 0 8.4 2.6 8.4 6.9 0 4.9-3.4 6.1-4.2 6.4v.1c1.5.2 3.8 1.4 3.8 5.4 0 3 .4 5.7 1.4 6.7h-4.8c-.7-1.1-.7-2.5-.7-3.7 0-4.7-1-6.7-5.1-6.7h-6.6v10.5h-4.5v-25.6h.1zm4.5 11.6h7.3c2.8 0 4.4-1.4 4.4-4.1 0-3.2-2.1-3.9-4.4-3.9h-7.2v8h-.1zm43-11.6h4.7l11.6 18.8h.1v-18.8h4.2v25.5h-4.7l-11.6-18.7h-.1v18.7h-4.2v-25.5zm26 0h10.6c7.9 0 11.2 5.7 11.2 12.7s-3.4 12.7-11.2 12.7h-10.6v-25.4zm4.4 21.9h4.4c7 0 8.5-4 8.5-9.1s-1.5-9.1-8.5-9.1h-4.4v18.2zm-52.7-11.3h17.3v3.6h-17.3v-3.6zm0 11.1h18.6v3.9h-18.6v-3.9zm0-21.7h18.4v3.9h-18.4v-3.9z"/><text transform="translate(214.618 51.708)" class="st1" font-family="ArialMT" font-size="12">Тренд</text></g><g id="neoClassic_1_"><path class="st3" d="M7.6 7.5h.7l12.6 24 6.4-24h.8l-6.7 25h-.7l-12.6-24-6.4 24h-.8l6.7-25zM35.6 7.5h17.5l-.2.7h-16.7l-3.1 11.4h15.2l-.2.7h-15.2l-3.1 11.5h16.9l-.2.7h-17.6l6.7-25zM79 17.9c0 4.1-1.8 8.1-4.6 10.9-2.5 2.5-5.9 4.1-9.6 4.1-6.4 0-10.7-4.8-10.7-10.8 0-4.1 1.8-8.1 4.6-10.9 2.5-2.5 5.9-4.1 9.6-4.1 6.4 0 10.7 4.8 10.7 10.8zm-5.1 10.5c2.7-2.7 4.4-6.5 4.4-10.4 0-5.7-4-10.2-10-10.2-3.5 0-6.6 1.5-9 3.9-2.7 2.7-4.4 6.5-4.4 10.4 0 5.7 4 10.2 10 10.2 3.5 0 6.6-1.5 9-3.9zM101.8 8v7.6c-1-1.1-1.9-1.8-2.9-2.3-.9-.5-2-.7-3-.7-2 0-3.6.7-4.9 2.1-1.2 1.4-1.9 3.2-1.9 5.3 0 2 .6 3.7 1.9 5.1 1.3 1.4 2.9 2 4.8 2 1.1 0 2.1-.2 3-.7s1.9-1.3 2.9-2.3v7.6c-1.1.5-2.2.9-3.3 1.2-1.1.3-2.2.4-3.3.4-1.4 0-2.7-.2-3.9-.5-1.2-.3-2.3-.8-3.3-1.5-1.9-1.3-3.4-2.9-4.4-4.8-1-1.9-1.5-4.1-1.5-6.6 0-2 .3-3.7 1-5.3.6-1.6 1.6-3.1 2.9-4.4 1.2-1.2 2.6-2.2 4.1-2.8s3.2-.9 5.1-.9c1.1 0 2.2.1 3.3.4 1.2.2 2.3.6 3.4 1.1zM105.8 32.5v-25.5h7v19.6h8.7v6h-15.7v-.1zM121.8 32.5l8.8-25.6h8.7l8.8 25.6h-6.9l-1.3-4.6h-9.9l-1.3 4.6h-6.9zm9.7-9.5h6.9l-2.6-8.4c-.1-.3-.2-.7-.3-1.2-.1-.6-.3-1.3-.5-2.2-.2.6-.3 1.2-.4 1.8-.1.6-.3 1.1-.4 1.6l-2.7 8.4zM151.7 24.3c1 1.2 2.1 2.1 3.1 2.6 1 .6 2 .9 3 .9.9 0 1.7-.2 2.3-.7s.9-1.1.9-1.9c0-.8-.3-1.5-.8-2s-1.7-.9-3.5-1.4c-2.5-.7-4.3-1.6-5.3-2.6-1-1.1-1.6-2.6-1.6-4.5 0-2.4.8-4.4 2.5-6 1.6-1.5 3.8-2.3 6.4-2.3 1.4 0 2.7.2 4 .6 1.3.4 2.5 1 3.6 1.7l-2.2 5c-.8-.7-1.6-1.2-2.4-1.5-.8-.3-1.7-.5-2.5-.5s-1.5.2-2 .6c-.5.4-.8.9-.8 1.5s.2 1.2.7 1.5c.5.4 1.3.8 2.7 1.1l.3.1c2.8.8 4.7 1.6 5.6 2.5.6.6 1.1 1.4 1.4 2.3.3.9.5 1.9.5 2.9 0 2.7-.9 4.9-2.7 6.5-1.8 1.6-4.2 2.5-7.1 2.5-1.8 0-3.4-.3-4.9-.9-1.5-.6-2.9-1.6-4.2-2.8l3-5.2zM172.5 24.3c1 1.2 2.1 2.1 3.1 2.6 1 .6 2 .9 3 .9.9 0 1.7-.2 2.3-.7s.9-1.1.9-1.9c0-.8-.3-1.5-.8-2s-1.7-.9-3.5-1.4c-2.5-.7-4.3-1.6-5.3-2.6-1-1.1-1.6-2.6-1.6-4.5 0-2.4.8-4.4 2.5-6 1.6-1.5 3.8-2.3 6.4-2.3 1.4 0 2.7.2 4 .6 1.3.4 2.5 1 3.6 1.7l-2.2 5c-.8-.7-1.6-1.2-2.4-1.5-.8-.3-1.7-.5-2.5-.5s-1.5.2-2 .6c-.5.4-.8.9-.8 1.5s.2 1.2.7 1.5c.5.4 1.3.8 2.7 1.1l.3.1c2.8.8 4.7 1.6 5.6 2.5.6.6 1.1 1.4 1.4 2.3.3.9.5 1.9.5 2.9 0 2.7-.9 4.9-2.7 6.5-1.8 1.6-4.2 2.5-7.1 2.5-1.8 0-3.4-.3-4.9-.9-1.5-.6-2.9-1.6-4.2-2.8l3-5.2zM192.3 32.5v-25.5h7v25.6h-7v-.1zM223.5 8v7.6c-1-1.1-1.9-1.8-2.9-2.3-.9-.5-2-.7-3-.7-2 0-3.6.7-4.9 2.1-1.2 1.4-1.9 3.2-1.9 5.3 0 2 .6 3.7 1.9 5.1 1.3 1.4 2.9 2 4.8 2 1.1 0 2.1-.2 3-.7s1.9-1.3 2.9-2.3v7.6c-1.1.5-2.2.9-3.3 1.2-1.1.3-2.2.4-3.3.4-1.4 0-2.7-.2-3.9-.5s-2.3-.8-3.3-1.5c-1.9-1.3-3.4-2.9-4.4-4.8-1-1.9-1.5-4.1-1.5-6.6 0-2 .3-3.7 1-5.3.6-1.6 1.6-3.1 2.9-4.4 1.2-1.2 2.6-2.2 4.1-2.8s3.2-.9 5.1-.9c1.1 0 2.2.1 3.3.4 1.2.2 2.3.6 3.4 1.1z"/></g></svg>