<?xml version="1.0" encoding="utf-8"?>
<!-- Generator: Adobe Illustrator 23.0.0, SVG Export Plug-In . SVG Version: 6.00 Build 0)  -->
<svg version="1.1" id="Слой_1" xmlns="http://www.w3.org/2000/svg" xmlns:xlink="http://www.w3.org/1999/xlink" x="0px" y="0px"
	 viewBox="0 0 186.8 25.3" style="enable-background:new 0 0 186.8 25.3;" xml:space="preserve">
<style type="text/css">
	.st0{display:none;}
	.st1{display:inline;fill:#FFF1CE;}
	.st2{display:inline;}
	.st3{fill:#FFF1CE;}
	.st4{opacity:0.78;fill:#FFF1CE;enable-background:new    ;}
</style>
<g id="quadro_copy" class="st0">
	<path class="st1" d="M197.3,1.7c-1.2-1.5-3.8-4.2-8.7-4.2c-6.5,0-12.4,4.5-12.4,13.3c0,8.9,5.9,13.5,12.4,13.5
		c4.5,0,7.2-2.4,8.7-4.3v3.5h4.4v-44.6h-4.4V1.7z M189.1,20.3c-5.3,0-8.3-4.1-8.3-9.5c0-6.2,4-9.4,8.3-9.4c3.9,0,8.4,2.9,8.4,9.4
		C197.6,15.9,194.5,20.3,189.1,20.3z M237.5-2.5c-7.8,0-13.5,5.7-13.5,13.4s5.8,13.3,13.5,13.3S251,18.6,251,10.9
		S245.3-2.5,237.5-2.5z M237.5,20.3c-4.5,0-8.9-3.2-8.9-9.4s4.3-9.5,8.9-9.5c4.7,0,8.9,3.2,8.9,9.5
		C246.5,17.1,242.1,20.3,237.5,20.3z M107.4,29.4c-2.3,0-4.3-1.1-6.5-2.3c-2.1-1.2-4.4-2.4-7.3-2.9c10.7-1.1,18.8-9.7,18.8-21
		c0-12.2-9.5-21.1-21.2-21.1C79.5-18,70-9,70,3.1c0,11.3,8.1,19.8,18.8,21c-6.6,1.1-8.4,6.5-8.5,6.8l4.1,1.4c0.1-0.4,1.6-4,6.8-4
		c2.9,0,5.2,1.3,7.6,2.6c2.5,1.4,5.2,2.9,8.6,2.9c7.5,0,12.2-7.6,12.4-7.9l-3.7-2.3C116,23.6,112.4,29.4,107.4,29.4L107.4,29.4z
		 M74.6,3.1c0-9.4,7.4-16.8,16.6-16.8s16.6,7.5,16.6,16.8s-7.4,16.8-16.6,16.8C82,20,74.6,12.5,74.6,3.1z M219.2-2.5
		c1.3,0,2.8,0.5,3.9,1l-2.1,4c-1-0.7-1.9-0.9-2.6-0.9c-1.8,0-2.9,0.7-3.5,1.6c-0.7,1-1.5,2.7-1.5,6.9v13.4H209V-1.9h4.4v2.8
		C213.8,0.2,215.7-2.5,219.2-2.5L219.2-2.5z M166.1,1.7c-1.2-1.5-3.8-4.2-8.7-4.2C150.9-2.5,145,2,145,10.8
		c0,8.9,5.9,13.5,12.4,13.5c4.5,0,7.2-2.4,8.7-4.3v3.5h4.4V-1.9h-4.4C166.1-1.9,166.1,1.7,166.1,1.7z M157.9,20.3
		c-5.3,0-8.3-4.1-8.3-9.5c0-6.2,4-9.4,8.3-9.4c3.9,0,8.4,2.9,8.4,9.4C166.4,15.9,163.3,20.3,157.9,20.3z M135.2-1.9h4.4v15.3
		c0,3.1-0.3,5.4-2.3,7.7c-2.3,2.4-5.3,3.2-7.8,3.2s-5.5-0.8-7.8-3.2c-2-2.2-2.3-4.5-2.3-7.7V-1.9h4.4v14.8c0,1.8,0,3.9,1.2,5.4
		c0.7,0.9,2,2,4.5,2c2.4,0,3.8-1.1,4.5-2c1.2-1.6,1.2-3.7,1.2-5.4L135.2-1.9L135.2-1.9z"/>
	<text transform="matrix(1 0 0 1 207.802 42.408)" class="st1" style="font-family:'ArialMT'; font-size:12px;">Квадро</text>
</g>
<g id="line" class="st0">
	<path class="st1" d="M101.1-11.2c0.3,0,0.5,0.2,0.6,0.5V22H139c0.3,0.1,0.5,0.4,0.5,0.6c0,0.3-0.2,0.6-0.6,0.6h-37.8
		c-0.4,0-0.6-0.3-0.7-0.7v-33.1C100.6-11,100.9-11.2,101.1-11.2z M145.8-11.2c0.3,0,0.5,0.2,0.6,0.5v33.3c0,0.5-0.3,0.7-0.6,0.7
		s-0.6-0.2-0.6-0.6v-33.3C145.3-11,145.6-11.2,145.8-11.2z M199-11.2c0.3,0,0.5,0.2,0.6,0.5v33.3c0,0.5-0.3,0.7-0.7,0.7
		c-0.1,0-0.3,0-0.3-0.1L156.4-9.3v31.8c0,0.5-0.3,0.7-0.6,0.7s-0.6-0.2-0.6-0.6v-33.2c0-0.3,0.3-0.6,0.6-0.6c0.2,0,0.3,0,0.5,0.2
		l42.1,32.4v-32C198.4-11,198.7-11.2,199-11.2z M207.2,23.3c-0.3,0-0.7-0.3-0.7-0.7v-33.2c0.1-0.4,0.3-0.5,0.7-0.6h43.2
		c0.3,0.1,0.5,0.4,0.5,0.6c0,0.3-0.2,0.6-0.6,0.6h-42.6v7.8h37.2c0.3,0.1,0.5,0.4,0.5,0.6c0,0.3-0.2,0.6-0.6,0.6h-37.2v22.9h42.6
		c0.3,0.1,0.5,0.4,0.5,0.6c0,0.3-0.2,0.6-0.6,0.6h-42.9L207.2,23.3L207.2,23.3z"/>
	<text transform="matrix(1 0 0 1 220.726 42.408)" class="st1" style="font-family:'ArialMT'; font-size:12px;">Лайн</text>
</g>
<g id="allure" class="st0">
	<path class="st1" d="M161.6,23.2h-3.2v-4.7h-0.1c-1.4,2.2-4.3,5.3-9.8,5.3c-7.6,0-13.5-5.5-13.5-13.4c0-6,4.4-13,13.4-13
		c2.2,0,6.9,0.3,9.9,5h0.1V-2h3.2L161.6,23.2L161.6,23.2z M138.3,10.7c0,5.8,4.7,10,10.1,10c5.5,0,9.9-4.4,9.9-10
		c0-5.7-4.3-10.3-10-10.3C142.9,0.5,138.3,4.9,138.3,10.7z M208.1,23.2h-3.2v-3.6h-0.1c-1.9,2.9-4.9,4.2-8.3,4.2
		c-5.9,0-11-3.5-11-12.5V-2h3.4v13.3c0,7.1,4.1,9.5,8,9.5c3.5,0,7.7-1.8,7.7-8.9V-2h3.4v25.2H208.1L208.1,23.2z M246.4,16.7
		c-1.7,2.4-4.5,4-7.9,4c-3.5,0-6.5-1.7-8.2-4.4l17.5-8.6l3.2-1.5c-1.7-5.2-6.5-8.9-12.4-8.9c-7.5,0-13.2,5.7-13.2,13.2
		s5.8,13.2,13.2,13.2c3.7,0,7.1-1.4,9.4-3.8L246.4,16.7z M228.8,10.6c0-5.7,4.1-10.1,9.8-10.1c3.5,0,6.4,1.7,8.2,4.4l-17.5,8.6
		C229,12.6,228.8,11.6,228.8,10.6z M167.4,23.2h3.4v-37.8l-3.4,1.7V23.2z M176.6-17.4v40.6h3.4v-42.3
		C180-19.1,176.6-17.4,176.6-17.4z M223.9-2.3c-2.2,0.5-4.7,1.7-6.6,4.6h-0.1v-4.4H214v25.3h3.2V10.6c0.1-4.9,3.3-8.9,7.8-9.9
		L223.9-2.3L223.9-2.3z"/>
	<text transform="matrix(1 0 0 1 212.626 42.408)" class="st1" style="font-family:'ArialMT'; font-size:12px;">Аллюр</text>
</g>
<g id="fusion" class="st0">
	<path class="st1" d="M137,3.4v10.1h-4.3v9.9h-9.6V1.6c0-2.5,0.4-4.5,1.3-6.3c1.1-2.2,2.7-4,4.9-5.4c2.2-1.4,4.4-2.1,6.8-2.1h1v10.1
		h-0.5c-1.2,0-2.2,0.4-2.8,1.2c-0.7,0.8-1,2-1,3.5v0.9C132.8,3.5,137,3.4,137,3.4z M141.2-1.9h9.6v14.5c0,1.5,0.6,2.2,1.8,2.2
		s1.8-0.7,1.8-2.2V-1.9h9.6v14.3c0,3.3-1.1,6.1-3.3,8.4s-4.9,3.4-8.1,3.4c-3.7,0-6.6-1.3-8.8-4c-1.7-2.1-2.6-5-2.6-8.7V-1.9z
		 M183.8-1.9V8.2c-1.4,0-2.3,0.3-2.8,0.8s-0.8,1.5-1,3c-0.4,5-2.4,8.5-5.8,10.5c-1.8,1.1-4.4,1.6-7.7,1.6h-1.3V13.9h0.4
		c1.5,0,2.6-0.3,3.3-1c0.7-0.6,1-1.8,1.1-3.4c0.1-2.6,0.4-4.5,0.7-5.5c0.4-1.1,1.1-2.1,2.1-3.2c1.9-1.8,4.5-2.8,7.9-2.8
		C180.7-2,183.8-1.9,183.8-1.9z M196.6-2.3v25.7H187V-2.3C187-2.3,196.6-2.3,196.6-2.3z M191.8-13.8c1.3,0,2.4,0.5,3.4,1.4
		s1.4,2,1.4,3.3s-0.4,2.4-1.4,3.3c-0.9,0.9-2.1,1.3-3.5,1.3s-2.6-0.4-3.5-1.3s-1.4-2-1.4-3.3s0.5-2.3,1.4-3.3
		C189.3-13.3,190.5-13.8,191.8-13.8z M212.4-2.8c3.6,0,6.8,1.3,9.4,3.9c2.6,2.6,3.9,5.8,3.9,9.4c0,3.7-1.3,6.9-4,9.5
		c-2.6,2.6-5.8,3.9-9.5,3.9s-6.9-1.3-9.6-3.9c-2.6-2.6-4-5.8-4-9.5c0-3.8,1.3-6.9,4-9.5C205.2-1.6,208.5-2.8,212.4-2.8L212.4-2.8z
		 M212.1,6.7c-1,0-1.9,0.4-2.6,1.1c-0.7,0.7-1.1,1.7-1.1,2.7c0,1.1,0.4,2,1.1,2.7c0.7,0.8,1.6,1.1,2.6,1.1s1.9-0.4,2.6-1.1
		c0.7-0.8,1.1-1.7,1.1-2.7c0-1.1-0.4-2-1.1-2.7C214,7,213.2,6.7,212.1,6.7z M251,23.4h-9.6V8.9c0-1.5-0.6-2.2-1.8-2.2
		s-1.8,0.7-1.8,2.2v14.5h-9.6V9.1c0-3.3,1.1-6.2,3.3-8.5s4.9-3.4,8.1-3.4c3.7,0,6.6,1.3,8.8,4c1.7,2.1,2.6,5,2.6,8.7V23.4z"/>
	<text transform="matrix(1 0 0 1 208.893 42.408)" class="st1" style="font-family:'ArialMT'; font-size:12px;">Фьюжн</text>
</g>
<g id="platinum_copy" class="st0">
	<g class="st2">
		<path class="st3" d="M43.3,23.9c-3.6,0-5.8-0.3-5.8-0.3v11.2h-7.1V-1.5c0,0,5-1.1,13-1.1c11.2,0,13,1.7,13,13.5
			C56.3,22.2,55.2,23.9,43.3,23.9z M49,10.6c0-8.9-0.4-8.9-6-8.9c-3.4,0-5.5,0.3-5.5,0.3v17.4c0,0,2.1,0.3,5.5,0.3c5.8,0,6,0,6-8.6
			C49,11.1,49,10.6,49,10.6z M62,23.3v-36.7h7.1v36.7H62z M87.8,23.9c-6.8,0-13,0-13-8.2c0-7.6,4.1-7.6,10.2-7.6h8.7V6.4
			c0-4.8-1.4-5-6-5C80.9,1.3,76.3,2,76.3,2v-3.5c0,0,4.7-1.1,12.2-1.1c7.9,0,12.2,0.6,12.2,9v16.4C100.8,22.9,95.8,23.9,87.8,23.9
			L87.8,23.9z M93.7,11.8h-6.6c-3.9,0-4.9,0-4.9,4c0,4.3,1.7,4.3,5.8,4.3c3.5,0,5.8-0.3,5.8-0.3v-8C93.8,11.8,93.7,11.8,93.7,11.8z
			 M119.3,23.9c-7.4,0-9.1-2.6-9.1-9V2.3H105V-2h5.3v-8.6h7V-2h9.5v4.3h-9.5v12.6c0,4.1,0.1,4.8,4.9,4.8c3.9,0,6.2-0.5,6.2-0.5v3.6
			C128.4,22.9,124.9,23.9,119.3,23.9z M132.6-6.5v-6.9h7.1v6.9H132.6z M132.6,23.3V-2h7.1v25.3H132.6z M164.4,23.3V6.4
			c0-4.7-1.7-4.7-5.6-4.7c-3.4,0-5.5,0.3-5.5,0.3v21.3h-7.1V-1.5c0,0,4.9-1.1,12.7-1.1c8.4,0,12.7,0.6,12.7,9v16.9H164.4L164.4,23.3
			z M190.4,23.9c-9.6,0-12.7-0.8-12.7-9V-2h7.1v16.9c0,4.8,1.3,4.8,5.5,4.8c3.5,0,5.6-0.3,5.6-0.3V-2h7v24.8
			C203.1,22.9,198.3,23.9,190.4,23.9L190.4,23.9z M243.9,23.3V6.4c0-4.7-1.7-4.7-5.1-4.7c-3.1,0-5.7,0.4-5.7,0.4s0.7,1.1,0.7,4.3
			v16.9h-7.1V6.4c0-4.7-1.7-4.7-5.1-4.7c-3.1,0-5,0.3-5,0.3v21.3h-7.1V-1.5c0,0,4.7-1.1,12.2-1.1c4.9,0,6.6,0.8,7.6,0.9
			c0.9-0.1,4.5-0.9,9.7-0.9c7.9,0,12.2,0.6,12.2,9v16.9H243.9L243.9,23.3z"/>
		<path class="st4" d="M226.6,5.2c0,0.4,0.1,0.8,0.1,1.3v0.7c2.3-0.1,4.7-0.2,7.1-0.2V5.2C231.3,5.1,229,5.1,226.6,5.2L226.6,5.2z
			 M209.4,8c2.3-0.2,4.7-0.3,7.1-0.4V5.4c-2.4,0.1-4.8,0.1-7.1,0.2V8z M250.9,4.9h-7.1c0,0.4,0.1,0.9,0.1,1.5v0.2h7.1V6.4
			C251,5.9,251,5.4,250.9,4.9z M117.3,14.9V13c-2.5,0.4-4.8,0.8-7,1.2v0.6c0,6.4,1.7,9,9.1,9c5.6,0,9.1-1.1,9.1-1.1v-3.5
			c0,0-2.3,0.5-6.2,0.5C117.4,19.7,117.3,19,117.3,14.9z M93.7,19.7c0,0-1.2,0.2-3.4,0.3c-2.6,1.3-4.2,2.6-4.6,4h2
			c8,0,12.9-1.1,12.9-1.1v-6.5c-2.7,0.7-5,1.4-7,2.1C93.6,18.5,93.7,19.7,93.7,19.7z M146.1,19.6c1.8-1,4.2-2.1,7.1-3V8.8
			c-2.4,0.2-4.8,0.4-7.1,0.7V19.6z M196.1,9.1c2.3-0.2,4.6-0.4,7-0.6V5.8c-2.4,0.1-4.7,0.2-7,0.3V9.1z M132.6,23.3h7.1V10.1
			c-2.5,0.3-4.8,0.5-7.1,0.8V23.3z M177.8,11.3c2.3-0.3,4.7-0.7,7.1-1V6.6c-2.4,0.1-4.8,0.3-7.1,0.4V11.3z M164.4,13.7
			c2.2-0.5,4.6-0.9,7-1.4V7.4c-2.4,0.2-4.7,0.3-7,0.5C164.4,7.9,164.4,13.7,164.4,13.7z M250.3,1.7h-9.9c1,0,1.9,0.2,2.4,0.7h7.7
			C250.5,2.2,250.4,2,250.3,1.7z M224.2,1.9c0.7,0.1,1.2,0.3,1.6,0.8l7.5-0.1c-0.1-0.3-0.2-0.4-0.2-0.4s1.8-0.3,4.1-0.4
			C232.8,1.8,228.5,1.8,224.2,1.9L224.2,1.9z M110.2,9.5c2.3-0.3,4.6-0.6,7-0.8V5.1c-2.4,0.1-4.7,0.3-7,0.4V9.5z M49,10.4v0.7
			c0,8.6-0.2,8.6-6,8.6c-3.4,0-5.5-0.3-5.5-0.3v-7.6c-2.5,0.3-4.9,0.7-7.1,1v22h7.1V23.6c0,0,2.2,0.3,5.8,0.3c11.9,0,13-1.7,13-13
			V9.6C53.8,9.9,51.3,10.2,49,10.4z M93.7,6.5v1.6H85c-6.1,0-10.1,0-10.2,7.5c2.3-0.6,4.7-1.2,7.4-1.7c0.4-2.1,1.7-2.1,4.8-2.1h6.6
			c2.3-0.4,4.6-0.7,7-1.1V6C98.4,6.2,96,6.3,93.7,6.5z M209.4,3l7.1-0.2V2h0.4l-7.6,0.1V3H209.4z M177.8,4.1l7.1-0.3V2.5
			c-2.4,0.1-4.8,0.1-7.1,0.2C177.8,2.7,177.8,4.1,177.8,4.1z M132.6,7.1c2.3-0.2,4.7-0.4,7.1-0.6V4c-2.4,0.1-4.8,0.2-7.1,0.3V7.1z
			 M146.1,6c2.3-0.2,4.7-0.3,7.1-0.5V3.4c-2.4,0.1-4.8,0.2-7.1,0.3V6z M163.8,3.1c0.3,0.4,0.4,1,0.5,1.7l7-0.4
			c-0.1-0.6-0.1-1.1-0.3-1.6L163.8,3.1z M62,20.2c1.8-1,4.2-2,7.1-3V8.4c-2.4,0.2-4.8,0.4-7.1,0.7V20.2z M196.1,3.4
			c2.3-0.1,4.7-0.2,7-0.2v-1c-2.4,0-4.7,0.1-7,0.1C196.1,2.3,196.1,3.4,196.1,3.4z"/>
	</g>
	<text transform="matrix(1 0 0 1 194.723 42.408)" class="st1" style="font-family:'ArialMT'; font-size:12px;">Платинум</text>
</g>
<g id="dante_copy" class="st0">
	<path class="st1" d="M170.2-25.5c0,1.6-0.2,3.3-0.6,5.1c-0.4,1.8-0.7,2.7-1.1,2.7c-0.2,0-0.3-0.1-0.3-0.3s0-0.4,0.1-0.6
		c0.7-1.9,1.1-4.2,1.1-6.8c0-4-1.2-7.2-3.6-9.6c-2.4-2.4-5.6-3.6-9.6-3.6c-7.7,0-15.1,3.6-22.3,10.9c2.7,5.1,4.1,10.4,4.1,16
		c0,10.4-4,19.2-11.9,26.4c-8,7.2-17.7,10.8-29.2,10.8c-3.5,0-8.4-0.5-14.6-1.5c-5.3,1-10.5,1.5-15.4,1.5c-8.4,0-12.5-0.8-12.5-2.5
		c0-0.8,1-1.5,3.1-2.2c2-0.6,4.4-0.9,7.1-0.9c3.3,0,9.8,1.1,19.7,3.2c6.6-1.7,11.8-4.5,15.6-8.2c3.7-3.6,9.4-11.6,17-23.8
		c4.6-7.4,9.7-13.7,15.2-18.9c-4.6-7.8-12.1-11.7-22.5-11.7c-10.6,0-20.4,4.2-29.3,12.6c-4.5,4.2-8.1,8.9-10.8,14.1
		c-2.7,5.1-4,9.8-4,14.1c0,3.4,1.1,6.2,3.3,8.2c2.2,2.1,5,3.1,8.6,3.1c6,0,12.3-3.3,18.8-9.8C102.7-3.7,106-10,106-16
		c0-2.3-0.6-4.1-1.9-5.5c-1.3-1.4-2.9-2.1-5-2.1c-2.3,0-3.5,0.4-3.5,1.1c0,0.2,0.2,0.3,0.5,0.3c0.2,0,0.3,0,0.5-0.1h0.7
		c1.6,0,2.3,0.7,2.3,2.1c0,1-0.4,2-1.2,2.7c-0.8,0.8-1.7,1.2-2.8,1.2c-1.9,0-2.9-1-2.9-3.1c0-1.4,0.6-2.6,1.9-3.7
		c1.3-1,2.8-1.5,4.6-1.5c2.3,0,4.2,0.8,5.6,2.3s2.2,3.5,2.2,6c0,6.4-3.3,12.9-10,19.6s-13.2,10-19.6,10c-4.4,0-8-1.5-10.9-4.4
		C63.7,6,62.2,2.2,62.2-2.4c0-9.8,4.9-18.7,14.6-26.5s20.7-11.7,32.9-11.7c10.4,0,18.3,3.8,23.5,11.5c7.7-7.1,15.6-10.7,23.5-10.7
		c4,0,7.2,1.3,9.7,3.9C169-33,170.2-29.7,170.2-25.5L170.2-25.5z M80.7,23.8c-8.7-1.2-15.3-1.9-19.6-1.9c-3.8,0-5.7,0.4-5.7,1.1
		c0,1.1,4.1,1.7,12.4,1.7C72.6,24.7,76.9,24.4,80.7,23.8z M135.5-15.2c0-4.1-0.9-7.8-2.6-11.4c-4.3,4.9-8.1,11-11.5,18.4
		c-4.5,9.8-9.1,16.8-13.9,21.1c-4.9,4.4-12.2,7.9-21.7,10.6c4,0.9,8.3,1.3,12.8,1.3c12.1,0,22-5.9,29.5-17.6
		C133-0.4,135.5-7.9,135.5-15.2L135.5-15.2z M172.9,8.4c0,0.7-2.3,3.7-6.9,9.2c-3.7,4.5-6.7,6.8-8.8,6.8c-1.5,0-2.6-0.5-3.6-1.6
		c-0.9-1.1-1.4-2.5-1.4-4.1c0-1.7,0.5-3.6,1.5-5.6c-3.2,4.4-5.6,7.4-7.3,9c-1.7,1.6-3.3,2.3-4.9,2.3c-1.7,0-3.1-0.7-4.2-2.2
		c-1.1-1.4-1.7-3.3-1.7-5.4c0-6.1,4.3-11.5,12.9-16.1c3.8-2.1,6.8-3.1,9.1-3.1c2,0,2.9,0.9,2.9,2.8c0,0.5-0.1,1.3-0.4,2.1l2.4-4.6
		c0.9,0.2,1.8,0.3,2.5,0.3c0.9,0,2-0.1,3.3-0.3L160,11.8c-2.9,4.9-4.4,8.1-4.4,9.6c0,1.5,0.6,2.2,1.9,2.2c1.3,0,3.3-1.4,6.1-4.4
		c2.8-2.9,5.6-6.5,8.5-10.7c0.2-0.3,0.4-0.5,0.5-0.5C172.8,8.2,172.9,8.3,172.9,8.4L172.9,8.4z M159.8,0.6c0-1.5-0.7-2.3-2.1-2.3
		c-2.9,0-6.7,2.8-11.5,8.5c-4.7,5.7-7.1,10.3-7.1,13.8c0,2.1,0.9,3.1,2.8,3.1c2.2,0,6-3.6,11.3-10.9C157.6,6.9,159.8,2.8,159.8,0.6z
		 M211,8.4c0,0.7-2.3,3.7-6.9,9.2c-3.8,4.5-6.7,6.8-8.9,6.8c-1.4,0-2.6-0.6-3.6-1.7s-1.4-2.5-1.4-4.1c0-1.4,0.3-2.7,0.9-4
		c0.6-1.2,2.1-3.6,4.6-7.2c2.6-3.8,3.8-6.2,3.8-7.3c0-1.3-0.7-1.9-2-1.9c-4.6,0-11.7,8.6-21.4,25.7c-1.6-0.1-2.5-0.2-2.8-0.2
		c-1.1,0-2.2,0.1-3.1,0.2l7.4-11.7c4.2-6.7,6.3-10.9,6.3-12.6c0-0.9-0.4-1.4-1.2-1.4c-1.6,0-4.8,3.4-9.6,10.2
		c-0.3,0.4-0.5,0.6-0.7,0.7c-0.2,0-0.3-0.1-0.3-0.3s0.1-0.3,0.2-0.4l0.9-1.2c4.8-6.5,8.1-9.8,9.8-9.8c1.1,0,2,0.5,2.8,1.5
		s1.1,2.2,1.1,3.5c0,2-1.2,4.8-3.6,8.5c3.7-5.2,6.6-8.7,8.6-10.6s3.9-2.8,5.6-2.8c1.4,0,2.6,0.6,3.5,1.7s1.4,2.5,1.4,4.2
		c0,2.1-1.5,5.4-4.4,9.7c-3,4.5-4.5,7.3-4.5,8.5c0,1.3,0.6,1.9,1.9,1.9c2.8,0,7.7-5,14.6-15.1c0.2-0.3,0.3-0.5,0.5-0.5
		C210.9,8.2,211,8.3,211,8.4L211,8.4z M228.5-2.5l-0.4,0.7h-6.2l-10.6,18.1c-1.3,2.2-1.9,3.9-1.9,5.2c0,1.4,0.7,2.1,2.2,2.1
		c2.9,0,7.7-5,14.6-15.1c0.2-0.3,0.4-0.5,0.6-0.5c0.2,0,0.3,0.1,0.3,0.3c0,0.1-0.2,0.3-0.5,0.8l-2,2.8c-6,8.3-10.4,12.4-13.5,12.4
		c-1.5,0-2.7-0.5-3.7-1.6s-1.5-2.4-1.5-4c0-1.9,0.8-4.3,2.5-7.1l8-13.4h-4.8l0.5-0.7h4.7l5.6-9.2c0.9,0.3,1.9,0.4,2.7,0.4
		c0.9,0,1.8-0.1,2.8-0.4l-5.5,9.2L228.5-2.5L228.5-2.5z M251,8.5c0,0.1-0.3,0.5-0.9,1.2l-2,2.6c-6.6,8.1-12.2,12.1-16.9,12.1
		c-2.2,0-4.1-0.8-5.6-2.4s-2.3-3.6-2.3-6c0-5.7,4-10.7,11.9-15c4.2-2.3,7.6-3.4,10.2-3.4c1.1,0,2.1,0.3,2.9,1
		c0.8,0.7,1.2,1.5,1.2,2.5c0,2.3-1.5,4.2-4.5,5.8s-7.9,3.1-14.9,4.5c-2.2,3.3-3.2,6-3.2,8.2c0,2.7,1.5,4.1,4.4,4.1
		c5,0,11.1-4.9,18.4-14.6c0.4-0.5,0.7-0.8,1-0.8C250.9,8.2,251,8.3,251,8.5L251,8.5z M247-0.3c0-1-0.6-1.5-1.7-1.5
		c-1.7,0-3.9,1.2-6.6,3.5c-2.7,2.3-5.4,5.3-8,9c4.6-1.2,8.4-2.8,11.6-5C245.4,3.6,247,1.6,247-0.3z"/>
	<text transform="matrix(1 0 0 1 215.506 42.408)" class="st1" style="font-family:'ArialMT'; font-size:12px;">Данте</text>
</g>
<g id="grand" class="st0">
	<path class="st1" d="M150.2,23.3c-0.8,0.1-1.3,0.2-2.2,0.2c-7.3,0-13.2-5.7-13.2-12.9c0-7.1,5.9-12.9,13.2-12.9
		c2.9,0,5.5,0.9,7.7,2.5l-0.5,0.7c-2-1.4-4.4-2.3-7.2-2.3c-6.9,0-12.4,5.4-12.4,12.1s5.6,12.1,12.4,12.1c0.7,0,1.4,0,2.1-0.1v-0.8
		c-0.7,0.1-1.4,0.2-2.1,0.2c-6.4,0-11.6-5-11.6-11.3S141.6-0.5,148-0.5c2.6,0,4.8,0.8,6.8,2.2l-0.5,0.6c-1.8-1.3-3.9-2-6.3-2
		c-6,0-10.8,4.7-10.8,10.5S142,21.3,148,21.3c0.7,0,1.4-0.1,2.1-0.2v-0.9c-0.7,0.1-1.4,0.2-2.1,0.2c-5.6,0-10-4.3-10-9.7
		S142.5,1,148,1c2.2,0,4.2,0.7,5.9,1.8l-0.5,0.7c-1.6-1-3.3-1.7-5.4-1.7c-5.1,0-9.3,3.9-9.3,8.9s4.1,8.9,9.3,8.9
		c0.7,0,1.4-0.1,2.1-0.2v-0.8c-0.7,0.1-1.4,0.2-2.1,0.2c-4.7,0-8.5-3.6-8.5-8.1s3.8-8.1,8.5-8.1c1.9,0,3.5,0.6,4.9,1.6l-0.4,0.7
		c-1.3-0.9-2.8-1.4-4.5-1.4c-4.3,0-7.7,3.2-7.7,7.3s3.4,7.3,7.7,7.3c0.8,0,1.5-0.1,2.1-0.3v-6.7h0.8v12.3L150.2,23.3L150.2,23.3z
		 M151.8,23.3V11.1h0.8v12.3L151.8,23.3z M153.4,23.3V11.1h0.8v12.3L153.4,23.3z M155,23.3V11.1h0.8v12.3L155,23.3z M160.1,23.3V-2
		h0.8v25.3H160.1z M161.7,23.3V-2h0.8v25.3H161.7z M163.3,23.3V-2h0.8v25.3H163.3z M164.9,23.3V-2h3.4c4.4,0,8,3.6,8,8
		c0,3-1.6,5.5-4,6.9l4.1,10.4h-0.8l-6-15.2c0.8-0.7,1.1-1.3,1.1-2.1c0-1.4-1-2.4-2.4-2.4h-2.6v6.1l0.2-0.1l5.4,13.7h-0.8l-4.8-12.1
		v12.1H164.9L164.9,23.3z M165.7-1.2v0.8h2.6c3.5,0,6.4,2.9,6.4,6.4c0,2.3-1.1,4.3-3,5.5l0.3,0.7c2.1-1.3,3.5-3.5,3.5-6.2
		c0-4-3.2-7.2-7.2-7.2C168.3-1.2,165.7-1.2,165.7-1.2z M165.7,0.4v0.8h2.6c2.7,0,4.8,2.1,4.8,4.8c0,1.6-0.8,3.1-2,3.9l0.3,0.7
		c1.5-1,2.5-2.7,2.5-4.7c0-3.1-2.5-5.6-5.6-5.6C168.3,0.3,165.7,0.4,165.7,0.4z M165.7,2v0.8h2.6c1.8,0,3.2,1.4,3.2,3.2
		c0,0.9-0.3,1.7-1,2.4l0.3,0.8c0.9-0.7,1.5-1.8,1.5-3.1c0-2.2-1.8-4-4-4C168.3,2.1,165.7,2,165.7,2z M167.3,9.1l5.6,14.2h-0.8
		l-5.5-14C166.6,9.3,167.3,9.1,167.3,9.1z M168.9,8.6l5.8,14.7h-0.9l-5.6-14.5C168.2,8.8,168.9,8.6,168.9,8.6z M177.8,23.3L187.5-2
		h0.8l-9.7,25.3H177.8z M179.5,23.3L189.2-2h0.8l-9.7,25.3H179.5z M181.2,23.3L190.9-2h0.8L182,23.3H181.2z M182.9,23.3L192.6-2h0.9
		l10.4,25.3H203L193-1l-0.4,1.2l9.5,23.1h-0.8l-9.1-22.1l-0.4,1l8.6,21h-0.8l-8.2-19.9L191,4.4l7.7,18.8h-0.8l-1.8-4.3h-10.7
		l-1.6,4.3L182.9,23.3z M185.7,18.3h10l-0.3-0.8H186L185.7,18.3z M186.3,16.7h8.8l-0.3-0.8h-8.2L186.3,16.7z M186.9,15.1h7.5
		l-0.3-0.8h-6.9L186.9,15.1z M187.6,13.5h6.3l-3.3-7.9L187.6,13.5z M206.4,23.3V-2h0.9l14.9,25.3h-0.9L212,7.5v15.8h-0.8V6.1
		l-0.8-1.3v18.5h-0.8V3.4l-0.8-1.3v21.2H208V0.7l-0.8-1.3v23.9H206.4L206.4,23.3z M209.2-2L224,23.3h-0.9L208.2-2H209.2L209.2-2z
		 M211-2l14.9,25.3H225L210.1-2H211z M226.8,23.3L211.9-2h0.9l9.3,15.9V-2h0.8v17.2l0.8,1.4V-2h0.8v19.9l0.8,1.4V-2h0.8v22.6
		l0.8,1.3v-24h0.8v25.3L226.8,23.3L226.8,23.3z M232.1,23.3V-2h0.8v25.3H232.1z M233.7,23.3V-2h0.8v25.3H233.7z M235.3,23.3V-2h0.8
		v25.3H235.3z M236.9,23.3V-2h0.9C245-2,251,3.6,251,10.7c0,7-6,12.7-13.2,12.7C237.8,23.4,236.9,23.3,236.9,23.3z M237.7-1.2v0.8
		c6.5,0,11.7,4.9,11.7,11.1s-5.2,11.1-11.7,11.1v0.8c7,0,12.5-5.3,12.5-11.9S244.6-1.2,237.7-1.2z M237.7,0.4v0.8
		c5.7,0,10.2,4.2,10.2,9.5s-4.4,9.5-10.2,9.5V21c6.1,0,11-4.5,11-10.3S243.8,0.4,237.7,0.4z M237.7,1.9v0.8c4.8,0,8.6,3.5,8.6,8
		c0,4.4-3.7,8-8.6,8v0.8c5.3,0,9.4-3.9,9.4-8.7S242.9,1.9,237.7,1.9z M237.7,3.5v14.3c4.4,0,7.8-3.1,7.8-7.2
		C245.4,6.7,242.1,3.5,237.7,3.5z"/>
	<text transform="matrix(1 0 0 1 216.118 42.408)" class="st1" style="font-family:'ArialMT'; font-size:12px;">Гранд</text>
</g>
<g id="neoClassic" class="st0">
	<path class="st1" d="M35.1-1.6h0.7l12.6,24l6.4-24h0.8l-6.7,25h-0.7l-12.6-24l-6.4,24h-0.8C28.4,23.4,35.1-1.6,35.1-1.6z M63.1-1.6
		h17.5l-0.2,0.7H63.7l-3.1,11.4h15.2l-0.2,0.7H60.4l-3.1,11.5h16.9L74,23.4H56.4L63.1-1.6L63.1-1.6z M106.5,8.8
		c0,4.1-1.8,8.1-4.6,10.9c-2.5,2.5-5.9,4.1-9.6,4.1c-6.4,0-10.7-4.8-10.7-10.8c0-4.1,1.8-8.1,4.6-10.9C88.7-0.4,92.1-2,95.8-2
		C102.2-2,106.5,2.8,106.5,8.8z M101.4,19.3c2.7-2.7,4.4-6.5,4.4-10.4c0-5.7-4-10.2-10-10.2c-3.5,0-6.6,1.5-9,3.9
		c-2.7,2.7-4.4,6.5-4.4,10.4c0,5.7,4,10.2,10,10.2C95.9,23.2,99,21.7,101.4,19.3z M129.3-1.1v7.6c-1-1.1-1.9-1.8-2.9-2.3
		c-0.9-0.5-2-0.7-3-0.7c-2,0-3.6,0.7-4.9,2.1c-1.2,1.4-1.9,3.2-1.9,5.3c0,2,0.6,3.7,1.9,5.1s2.9,2,4.8,2c1.1,0,2.1-0.2,3-0.7
		s1.9-1.3,2.9-2.3v7.6c-1.1,0.5-2.2,0.9-3.3,1.2c-1.1,0.3-2.2,0.4-3.3,0.4c-1.4,0-2.7-0.2-3.9-0.5c-1.2-0.3-2.3-0.8-3.3-1.5
		c-1.9-1.3-3.4-2.9-4.4-4.8s-1.5-4.1-1.5-6.6c0-2,0.3-3.7,1-5.3c0.6-1.6,1.6-3.1,2.9-4.4c1.2-1.2,2.6-2.2,4.1-2.8s3.2-0.9,5.1-0.9
		c1.1,0,2.2,0.1,3.3,0.4C127.1-2,128.2-1.6,129.3-1.1L129.3-1.1z M133.3,23.4V-2.1h7v19.6h8.7v6L133.3,23.4z M149.3,23.4l8.8-25.6
		h8.7l8.8,25.6h-6.9l-1.3-4.6h-9.9l-1.3,4.6H149.3L149.3,23.4z M159,13.9h6.9l-2.6-8.4c-0.1-0.3-0.2-0.7-0.3-1.2
		c-0.1-0.6-0.3-1.3-0.5-2.2c-0.2,0.6-0.3,1.2-0.4,1.8c-0.1,0.6-0.3,1.1-0.4,1.6L159,13.9z M179.2,15.2c1,1.2,2.1,2.1,3.1,2.6
		c1,0.6,2,0.9,3,0.9c0.9,0,1.7-0.2,2.3-0.7s0.9-1.1,0.9-1.9s-0.3-1.5-0.8-2s-1.7-0.9-3.5-1.4c-2.5-0.7-4.3-1.6-5.3-2.6
		c-1-1.1-1.6-2.6-1.6-4.5c0-2.4,0.8-4.4,2.5-6c1.6-1.5,3.8-2.3,6.4-2.3c1.4,0,2.7,0.2,4,0.6s2.5,1,3.6,1.7l-2.2,5
		c-0.8-0.7-1.6-1.2-2.4-1.5c-0.8-0.3-1.7-0.5-2.5-0.5s-1.5,0.2-2,0.6c-0.5,0.4-0.8,0.9-0.8,1.5s0.2,1.2,0.7,1.5
		c0.5,0.4,1.3,0.8,2.7,1.1l0.3,0.1c2.8,0.8,4.7,1.6,5.6,2.5c0.6,0.6,1.1,1.4,1.4,2.3c0.3,0.9,0.5,1.9,0.5,2.9c0,2.7-0.9,4.9-2.7,6.5
		s-4.2,2.5-7.1,2.5c-1.8,0-3.4-0.3-4.9-0.9s-2.9-1.6-4.2-2.8C176.2,20.4,179.2,15.2,179.2,15.2z M200,15.2c1,1.2,2.1,2.1,3.1,2.6
		c1,0.6,2,0.9,3,0.9c0.9,0,1.7-0.2,2.3-0.7s0.9-1.1,0.9-1.9s-0.3-1.5-0.8-2s-1.7-0.9-3.5-1.4c-2.5-0.7-4.3-1.6-5.3-2.6
		c-1-1.1-1.6-2.6-1.6-4.5c0-2.4,0.8-4.4,2.5-6c1.6-1.5,3.8-2.3,6.4-2.3c1.4,0,2.7,0.2,4,0.6s2.5,1,3.6,1.7l-2.2,5
		c-0.8-0.7-1.6-1.2-2.4-1.5c-0.8-0.3-1.7-0.5-2.5-0.5s-1.5,0.2-2,0.6c-0.5,0.4-0.8,0.9-0.8,1.5s0.2,1.2,0.7,1.5
		c0.5,0.4,1.3,0.8,2.7,1.1l0.3,0.1c2.8,0.8,4.7,1.6,5.6,2.5c0.6,0.6,1.1,1.4,1.4,2.3c0.3,0.9,0.5,1.9,0.5,2.9c0,2.7-0.9,4.9-2.7,6.5
		s-4.2,2.5-7.1,2.5c-1.8,0-3.4-0.3-4.9-0.9s-2.9-1.6-4.2-2.8C197,20.4,200,15.2,200,15.2z M219.8,23.4V-2.1h7v25.6L219.8,23.4z
		 M251-1.1v7.6c-1-1.1-1.9-1.8-2.9-2.3c-0.9-0.5-2-0.7-3-0.7c-2,0-3.6,0.7-4.9,2.1c-1.2,1.4-1.9,3.2-1.9,5.3c0,2,0.6,3.7,1.9,5.1
		c1.3,1.4,2.9,2,4.8,2c1.1,0,2.1-0.2,3-0.7s1.9-1.3,2.9-2.3v7.6c-1.1,0.5-2.2,0.9-3.3,1.2s-2.2,0.4-3.3,0.4c-1.4,0-2.7-0.2-3.9-0.5
		s-2.3-0.8-3.3-1.5c-1.9-1.3-3.4-2.9-4.4-4.8s-1.5-4.1-1.5-6.6c0-2,0.3-3.7,1-5.3c0.6-1.6,1.6-3.1,2.9-4.4c1.2-1.2,2.6-2.2,4.1-2.8
		s3.2-0.9,5.1-0.9c1.1,0,2.2,0.1,3.3,0.4C248.8-2,249.9-1.6,251-1.1L251-1.1z"/>
	<text transform="matrix(1 0 0 1 184.126 42.408)" class="st1" style="font-family:'ArialMT'; font-size:12px;">Нэоклассик</text>
</g>
<g id="novella" class="st0">
	<path class="st1" d="M31.4-1.9h10.1L59,16.2V5.4c0-1.3-0.2-2.5-0.7-3.5s-1.1-1.7-2-2.3c-0.5-0.3-0.9-0.5-1.4-0.6S53.8-1.2,53-1.3
		V-2h12.5v0.7h-0.3c-1.8,0-3.2,0.6-4.1,1.7c-0.9,1.2-1.4,2.8-1.4,5v18h-0.6L37.4,1.2v15c0,1.5,0.2,2.6,0.5,3.5s0.9,1.6,1.7,2
		c0.6,0.4,1.4,0.6,2.3,0.7c0.5,0.1,1.2,0.1,2.2,0.2v0.7H31v-0.7c1.3-0.1,2.4-0.3,3.3-0.7c0.8-0.4,1.5-1,1.9-1.8s0.6-1.8,0.6-3V2.9
		c0-0.9-0.2-1.6-0.6-2.2c-0.4-0.6-1-1.1-1.7-1.4c-0.7-0.3-1.6-0.5-2.7-0.5h-0.3v-0.7C31.5-1.9,31.4-1.9,31.4-1.9z M81.9-2.4
		c2.4,0,4.5,0.4,6.5,1.1S92,0.5,93.5,2c1.2,1.2,2.2,2.6,2.8,4.1c0.7,1.5,1,3,1,4.6c0,2.4-0.7,4.5-2,6.5s-3.2,3.6-5.5,4.7
		c-2.3,1.2-4.8,1.7-7.6,1.7c-2.1,0-4.1-0.3-5.9-1s-3.5-1.6-4.9-2.8s-2.5-2.6-3.3-4.2s-1.2-3.3-1.2-5c0-2.3,0.7-4.5,2-6.5
		c1.4-2,3.2-3.6,5.5-4.8C76.8-1.8,79.3-2.4,81.9-2.4z M82.4-1.7c-1.1,0-2.1,0.2-3.1,0.6c-1,0.4-1.8,0.9-2.4,1.6
		c-0.7,0.8-1.3,1.7-1.8,2.7s-0.9,2.2-1.2,3.5c-0.3,1.3-0.4,2.7-0.4,4.1c0,1.8,0.2,3.5,0.6,5.1c0.4,1.5,1,2.8,1.8,3.9
		s1.7,1.9,2.8,2.5c1.1,0.6,2.3,0.9,3.6,0.9c1.8,0,3.3-0.5,4.6-1.5c1.3-1,2.3-2.5,3-4.4s1.1-4.1,1.1-6.7c0-1.7-0.2-3.3-0.6-4.7
		c-0.4-1.5-0.9-2.7-1.7-3.8C88,1,87.1,0.2,86.1-0.5c-0.5-0.3-1.1-0.6-1.7-0.8C83.7-1.6,83-1.7,82.4-1.7z M97.8-1.9h14.7v0.7h-1.8
		c-0.8,0-1.5,0.2-1.9,0.5c-0.5,0.3-0.7,0.8-0.7,1.4c0,0.6,0.2,1.3,0.5,2.1l6.9,15.1l5.8-13c0.5-1,0.7-1.9,0.7-2.6c0-1-0.3-1.9-1-2.5
		c-0.6-0.6-1.5-0.9-2.7-1v-0.7h10.1v0.7c-1,0.1-1.8,0.4-2.6,0.8s-1.4,1.1-2.1,1.9c-0.6,0.8-1.3,2-1.9,3.4l-8.4,18.8h-0.6l-9.7-21.3
		c-1.2-2.5-2.6-3.8-4.5-3.8h-0.9C97.7-1.4,97.8-1.9,97.8-1.9z M128.8-1.9h26.8v9.7H155c-0.5-1.7-0.9-3-1.3-3.8
		c-0.4-0.8-0.9-1.6-1.5-2.4c-0.8-0.9-1.6-1.5-2.5-1.9c-1.5-0.6-3.3-0.9-5.4-0.9h-5v12h1.3c2,0,3.6-0.9,4.7-2.6
		c0.6-0.9,1-1.9,1.3-3.1c0.1-0.5,0.3-1.3,0.4-2.3h0.6v16.5H147c-0.1-0.9-0.3-1.7-0.5-2.5s-0.4-1.4-0.7-1.9c-0.2-0.5-0.6-1-0.9-1.5
		c-1.1-1.3-2.6-2-4.6-2h-1v11.3h4.1c1.2,0,2.3-0.1,3.3-0.3s1.9-0.4,2.6-0.8c0.8-0.4,1.5-0.8,2.2-1.4c1.2-1,2.1-2.2,2.7-3.7
		c0.4-0.9,0.8-2,1.2-3.5h0.7v10.4h-27.4v-0.7h0.7c3,0,4.6-1.5,4.6-4.6V3.3c0-1.6-0.4-2.7-1.1-3.5c-0.7-0.7-1.9-1.1-3.5-1.1h-0.7
		L128.8-1.9L128.8-1.9z M160.7-1.9h17.2v0.7h-1.8c-1.5,0-2.7,0.4-3.4,1.1c-0.7,0.7-1.1,1.9-1.1,3.5v19.3h6.5c1.3,0,2.5-0.3,3.6-0.9
		s2.1-1.4,3-2.4c0.5-0.6,0.9-1.3,1.3-1.9c0.4-0.6,0.8-1.4,1.1-2.3s0.7-1.9,1-3.1h0.7v11.1h-28v-0.7h0.9c3,0,4.6-1.5,4.6-4.6V3.3
		c0-3-1.5-4.6-4.6-4.6h-0.9v-0.6C160.8-1.9,160.7-1.9,160.7-1.9z M191.1-1.9h17.2v0.7h-1.8c-1.5,0-2.7,0.4-3.4,1.1
		c-0.7,0.7-1.1,1.9-1.1,3.5v19.3h6.5c1.3,0,2.5-0.3,3.6-0.9s2.1-1.4,3-2.4c0.5-0.6,0.9-1.3,1.3-1.9c0.4-0.6,0.7-1.4,1.1-2.3
		c0.3-0.9,0.7-1.9,1-3.1h0.7v11.1h-28v-0.7h0.9c3,0,4.6-1.5,4.6-4.6V3.3c0-3-1.5-4.6-4.6-4.6h-0.9v-0.6
		C191.2-1.9,191.1-1.9,191.1-1.9z M235-2.4h0.7l10.1,22c0.3,0.7,0.7,1.2,1.1,1.7c0.4,0.4,0.9,0.8,1.4,1s1.1,0.3,1.8,0.3h0.7v0.7
		h-14.6v-0.7h1.9c0.9,0,1.6-0.1,2.1-0.4c0.4-0.3,0.7-0.7,0.7-1.2c0-0.3-0.1-0.7-0.3-1.2s-0.6-1.4-1.1-2.6c0-0.1-0.1-0.2-0.2-0.4
		s-0.2-0.3-0.2-0.5l-0.4-0.9H228l-0.8,1.9c-0.3,0.6-0.4,1.3-0.4,1.9s0.2,1.1,0.5,1.6s0.7,0.9,1.2,1.2c0.3,0.2,0.6,0.3,0.9,0.4
		c0.3,0.1,0.6,0.1,1.1,0.1v0.7H220v-0.7c0.7-0.1,1.3-0.2,1.8-0.4c0.4-0.2,0.9-0.5,1.5-0.9c1.3-1,2.5-2.8,3.7-5.6
		C227,15.6,235-2.4,235-2.4z M233.1,3.5l-4.9,11.2h10L233.1,3.5z"/>
	<text transform="matrix(1 0 0 1 195.118 42.408)" class="st1" style="font-family:'ArialMT'; font-size:12px;">Новеллла</text>
</g>
<g id="sigma" class="st0">
	<path class="st1" d="M164.6,23.7h2V-2.1h-2V23.7z M237.8-3.7l-12.9,27.8h0.1c3.7-2.3,8.1-3.7,12.8-3.7s9.1,1.4,12.8,3.7h0.1
		L237.8-3.7L237.8-3.7z M153.7,9.6l-2.2-0.8c-0.5-0.2-1.1-0.5-1.7-0.9c-1.3-0.9-1.9-2-1.9-3.6c0-1.2,0.5-2.4,1.4-3.4s2.3-1.6,4-1.6
		c2,0,3.4,0.6,5.8,2v-2.1c-2-1.1-4-1.6-6-1.6c-2.1,0-3.9,0.7-5.3,2.1c-1.4,1.4-2,3-2,4.7c0,1.9,0.8,3.6,2.3,4.9
		c0.8,0.7,2.3,1.4,4.7,2.2c1.3,0.5,2.2,0.8,3.4,1.7s1.9,2.2,1.9,3.8c0,1.3-0.5,2.5-1.5,3.6c-0.9,1.1-2.3,1.6-4,1.6
		c-2.2,0-4-0.9-6.5-2.7v2.3c2.2,1.5,4.5,2.3,6.6,2.3c1.9,0,3.7-0.6,5.2-1.9c1.6-1.3,2.3-3,2.3-5.2s-0.8-3.9-2.2-5
		C156.7,10.8,155.5,10.2,153.7,9.6z M211,9.9l-9.8-12h-2v25.8h2V0.8l9.8,12.1l9.8-12.1v22.9h2V-2.1h-2L211,9.9z M186.8,13.6h5.5v7
		c-2.8,1.1-5.3,1.6-7.8,1.6c-3,0-5.6-1.1-7.8-3.1c-2.2-2.1-3.4-4.9-3.4-8.3s1.1-6.2,3.4-8.3c2.2-2.1,4.9-3.1,7.9-3.1
		c3.4,0,6.5,0.9,9.2,2.6v-2.3c-1-0.5-1.8-0.8-2.5-1c-0.6-0.2-1.5-0.5-2.8-0.8c-1.2-0.3-2.5-0.4-3.6-0.4c-4.1,0-7.3,1.2-10,3.8
		c-2.6,2.5-3.9,5.6-3.9,9.4c0,3.9,1.4,7.1,4.1,9.6c2.8,2.5,5.9,3.7,9.4,3.7c3.3,0,6.5-0.7,9.7-2.2v-9.9h-7.5v1.7L186.8,13.6
		L186.8,13.6z"/>
	<text transform="matrix(1 0 0 1 215.313 42.408)" class="st1" style="font-family:'ArialMT'; font-size:12px;">Сигма</text>
</g>
<g id="trend" class="st0">
	<path class="st1" d="M131.7-2h20.6v3.9h-8.1v21.6h-4.5V1.9h-8.1V-2C131.6-2,131.7-2,131.7-2z M155.3-2h12.2c5.6,0,8.4,2.6,8.4,6.9
		c0,4.9-3.4,6.1-4.2,6.4v0.1c1.5,0.2,3.8,1.4,3.8,5.4c0,3,0.4,5.7,1.4,6.7h-4.8c-0.7-1.1-0.7-2.5-0.7-3.7c0-4.7-1-6.7-5.1-6.7h-6.6
		v10.5h-4.5V-2L155.3-2L155.3-2z M159.8,9.6h7.3c2.8,0,4.4-1.4,4.4-4.1c0-3.2-2.1-3.9-4.4-3.9h-7.2v8H159.8z M202.8-2h4.7l11.6,18.8
		h0.1V-2h4.2v25.5h-4.7L207.1,4.8H207v18.7h-4.2C202.8,23.5,202.8-2,202.8-2z M228.8-2h10.6c7.9,0,11.2,5.7,11.2,12.7
		s-3.4,12.7-11.2,12.7h-10.6V-2z M233.2,19.9h4.4c7,0,8.5-4,8.5-9.1s-1.5-9.1-8.5-9.1h-4.4V19.9z M180.5,8.6h17.3v3.6h-17.3V8.6z
		 M180.5,19.7h18.6v3.9h-18.6V19.7z M180.5-2h18.4v3.9h-18.4C180.5,1.9,180.5-2,180.5-2z"/>
	<text transform="matrix(1 0 0 1 214.618 42.408)" class="st1" style="font-family:'ArialMT'; font-size:12px;">Тренд</text>
</g>
<g id="novella_1_">
	<path d="M1.1,3h8.6l14.7,15.4V9.3c0-1.1-0.2-2.2-0.6-2.9c-0.5-0.8-0.9-1.4-1.7-2C21.7,4.1,21.4,4,20.9,4c-0.5-0.2-0.9-0.2-1.5-0.3
		V3H30v0.6h-0.3c-1.5,0-2.8,0.5-3.5,1.4c-0.8,1.1-1.2,2.3-1.2,4.3v15.2h-0.5L6.2,5.7v12.7c0,1.2,0.2,2.2,0.5,2.9
		C6.9,22.1,7.4,22.7,8,23c0.6,0.3,1.2,0.6,2,0.6c0.5,0.2,1.1,0.2,1.8,0.2v0.6H0.8v-0.6c1.1-0.2,2-0.3,2.8-0.6
		c0.6-0.3,1.2-0.9,1.5-1.5C5.4,21,5.5,20.1,5.5,19V7c0-0.8-0.2-1.4-0.5-1.8C4.8,4.7,4.2,4.3,3.7,4C3.1,3.7,2.3,3.5,1.4,3.5H1.2
		C1.2,3.5,1.1,3,1.1,3z M43.8,2.7c2,0,3.8,0.3,5.5,0.9c1.7,0.6,3.1,1.5,4.3,2.8c1.1,1.1,1.8,2.2,2.3,3.5c0.6,1.2,0.9,2.6,0.9,3.8
		c0,2-0.6,3.8-1.7,5.5c-1.1,1.7-2.8,3.1-4.6,4c-2,1.1-4,1.4-6.5,1.4c-1.8,0-3.5-0.3-4.9-0.9c-1.5-0.6-2.9-1.4-4.1-2.3
		c-1.2-1.1-2.2-2.2-2.8-3.5c-0.6-1.4-1.1-2.8-1.1-4.3c0-2,0.6-3.8,1.7-5.5c1.2-1.7,2.8-3.1,4.6-4C39.5,3.2,41.6,2.7,43.8,2.7z
		 M44.2,3.2c-0.9,0-1.8,0.2-2.6,0.5c-0.9,0.3-1.5,0.8-2,1.4c-0.6,0.6-1.1,1.4-1.5,2.3c-0.5,0.9-0.8,1.8-1.1,2.9
		c-0.3,1.1-0.3,2.3-0.3,3.5c0,1.5,0.2,2.9,0.5,4.3c0.3,1.2,0.9,2.3,1.5,3.2s1.4,1.5,2.3,2.2c0.9,0.5,2,0.8,3.1,0.8
		c1.5,0,2.8-0.5,3.8-1.2c1.1-0.9,2-2.2,2.6-3.7c0.6-1.5,0.9-3.5,0.9-5.7c0-1.4-0.2-2.8-0.5-4c-0.3-1.2-0.8-2.3-1.4-3.2
		s-1.4-1.5-2.2-2.2C47,4,46.5,3.8,46.1,3.7C45.3,3.4,44.7,3.2,44.2,3.2z M57.3,3h12.4v0.6h-1.5c-0.6,0-1.2,0.2-1.5,0.5
		c-0.5,0.3-0.6,0.6-0.6,1.2c0,0.5,0.2,1.1,0.5,1.8l5.8,12.7l4.9-11.1c0.5-0.9,0.6-1.5,0.6-2.2c0-0.9-0.3-1.5-0.9-2.2
		c-0.5-0.5-1.2-0.8-2.3-0.9V3h8.6v0.6c-0.9,0.2-1.5,0.3-2.2,0.6s-1.2,0.9-1.8,1.5c-0.5,0.6-1.1,1.7-1.5,2.9l-7.1,15.8h-0.8l-8.1-18
		c-1.1-2.2-2.2-3.2-3.8-3.2h-0.8C57.1,3.4,57.3,3,57.3,3z M83.4,3h22.7v8.1h-0.5c-0.5-1.4-0.8-2.6-1.1-3.2c-0.3-0.6-0.8-1.4-1.2-2
		c-0.6-0.8-1.4-1.2-2.2-1.5C100,4,98.5,3.7,96.6,3.7h-4.3v10.1h1.1c1.7,0,3.1-0.8,4-2.2c0.5-0.8,0.9-1.5,1.1-2.6
		c0.2-0.5,0.3-1.1,0.3-2h0.5v14h-0.5l-0.5-2.2c0,0-0.3-1.2-0.6-1.5c-0.2-0.5-0.5-0.9-0.8-1.2c-0.9-1.1-2.2-1.7-3.8-1.7h-0.9v9.5h3.5
		c1.1,0,2-0.2,2.8-0.3c0.9-0.2,1.5-0.3,2.2-0.6c0.6-0.3,1.2-0.6,1.8-1.2c1.1-0.9,1.8-1.8,2.3-3.1c0.3-0.8,0.6-1.7,1.1-2.9h0.6v8.8
		h-23v-0.6H84c2.6,0,3.8-1.2,3.8-3.8V7.7c0-1.4-0.3-2.3-0.9-2.9c-0.6-0.6-1.5-0.9-2.9-0.9h-0.6C83.4,3.8,83.4,3,83.4,3z M110.4,3
		H125v0.6h-1.5c-1.2,0-2.3,0.3-2.9,0.9c-0.6,0.6-0.9,1.5-0.9,2.9v16.3h5.5c1.1,0,2.2-0.3,3.1-0.8c0.9-0.5,1.8-1.2,2.6-2
		c0.5-0.5,0.8-1.1,1.1-1.5c0.3-0.5,0.6-1.2,0.9-2c0.3-0.8,0.6-1.5,0.9-2.6h0.6v9.4h-23.8v-0.6h0.8c2.6,0,3.8-1.2,3.8-3.8V7.5
		c0-2.6-1.2-3.8-3.8-3.8h-0.8C110.6,3.7,110.4,3,110.4,3z M136.1,3h14.6v0.6h-1.5c-1.2,0-2.3,0.3-2.9,0.9c-0.6,0.6-0.9,1.5-0.9,2.9
		v16.3h5.5c1.1,0,2.2-0.3,3.1-0.8c0.9-0.5,1.8-1.2,2.6-2c0.5-0.5,0.8-1.1,1.1-1.5c0.3-0.5,0.6-1.2,0.9-2c0.3-0.8,0.6-1.5,0.9-2.6
		h0.6v9.4h-23.8v-0.6h0.8c2.6,0,3.8-1.2,3.8-3.8V7.5c0-2.6-1.2-3.8-3.8-3.8h-0.8C136.2,3.7,136.1,3,136.1,3z M173.3,2.7h0.6
		l8.6,18.6c0.3,0.6,0.6,1.1,0.9,1.4c0.3,0.3,0.8,0.6,1.2,0.9c0.5,0.2,0.9,0.3,1.5,0.3h0.6v0.6h-12.3v-0.6h1.5c0.8,0,1.4-0.2,1.8-0.3
		c0.3-0.3,0.6-0.6,0.6-1.1c0-0.3-0.2-0.6-0.3-1.1c-0.2-0.5-0.5-1.2-0.9-2.2l-0.2-0.3c-0.2-0.2-0.2-0.3-0.2-0.5l-0.3-0.8h-9.1
		l-0.6,1.5c-0.3,0.5-0.3,1.1-0.3,1.5c0,0.5,0.2,0.9,0.5,1.4c0.3,0.5,0.6,0.8,1.1,1.1c0.3,0.2,0.5,0.3,0.8,0.3
		c0.3,0.2,0.5,0.2,0.9,0.2v0.6h-9.4v-0.6c0.6-0.2,1.1-0.2,1.5-0.3c0.3-0.2,0.8-0.5,1.2-0.8c1.1-0.9,2.2-2.3,3.1-4.8L173.3,2.7
		L173.3,2.7z M171.7,7.7l-4.1,9.5h8.4C176,17.2,171.7,7.7,171.7,7.7z"/>
</g>
</svg>
